<?xml version="1.0" standalone="no"?>
<!DOCTYPE svg PUBLIC "-//W3C//DTD SVG 1.1//EN" "http://www.w3.org/Graphics/SVG/1.1/DTD/svg11.dtd" >
<svg xmlns="http://www.w3.org/2000/svg">
<metadata>Generated by IcoMoon</metadata>
<defs>
<font id="icomoon" horiz-adv-x="1024">
<font-face units-per-em="1024" ascent="960" descent="-64" />
<missing-glyph horiz-adv-x="1024" />
<glyph unicode="&#x20;" horiz-adv-x="512" d="" />
<glyph unicode="&#xe900;" glyph-name="home1" d="M1024 369.556l-512 397.426-512-397.428v162.038l512 397.426 512-397.428zM896 384v-384h-256v256h-256v-256h-256v384l384 288z" />
<glyph unicode="&#xe901;" glyph-name="chat" d="M768 596.667v86h-512v-86h512zM598 340.667v86h-342v-86h342zM256 554.667v-86h512v86h-512zM854 852.667q34 0 59-25t25-59v-512q0-34-25-60t-59-26h-598l-170-170v768q0 34 25 59t59 25h684z" />
<glyph unicode="&#xe902;" glyph-name="comment1" d="M768 596.667v86h-512v-86h512zM768 468.667v86h-512v-86h512zM768 340.667v86h-512v-86h512zM938 768.667v-768l-170 170h-598q-34 0-59 26t-25 60v512q0 34 25 59t59 25h684q34 0 59-25t25-59z" />
<glyph unicode="&#xe903;" glyph-name="email" d="M854 596.667v86l-342-214-342 214v-86l342-212zM854 768.667q34 0 59-26t25-60v-512q0-34-25-60t-59-26h-684q-34 0-59 26t-25 60v512q0 34 25 60t59 26h684z" />
<glyph unicode="&#xe904;" glyph-name="forum" d="M726 426.667q0-18-13-30t-31-12h-426l-170-172v598q0 18 12 30t30 12h554q18 0 31-12t13-30v-384zM896 682.667q18 0 30-12t12-30v-640l-170 170h-470q-18 0-30 12t-12 30v86h554v384h86z" />
<glyph unicode="&#xe905;" glyph-name="location_off" d="M500 448.667q218-216 354-352l-54-54-144 142q-32-48-68-94t-56-68l-20-22q-12 14-32 37t-72 92-91 134-71 147-32 144q0 22 8 66l-136 136 54 54 356-356zM512 660.667q-46 0-78-36l-138 136q36 38 100 65t116 27q124 0 211-87t87-211q0-96-72-234l-154 156q34 30 34 78 0 44-31 75t-75 31z" />
<glyph unicode="&#xe906;" glyph-name="location_on" d="M512 448.667q44 0 75 31t31 75-31 75-75 31-75-31-31-75 31-75 75-31zM512 852.667q124 0 211-87t87-211q0-62-31-142t-75-150-87-131-73-97l-32-34q-12 14-32 37t-72 92-91 134-71 147-32 144q0 124 87 211t211 87z" />
<glyph unicode="&#xe907;" glyph-name="message" d="M768 596.667v86h-512v-86h512zM768 468.667v86h-512v-86h512zM768 340.667v86h-512v-86h512zM854 852.667q34 0 59-25t25-59v-512q0-34-25-60t-59-26h-598l-170-170v768q0 34 25 59t59 25h684z" />
<glyph unicode="&#xe908;" glyph-name="chat_bubble" d="M854 852.667q34 0 59-25t25-59v-512q0-34-25-60t-59-26h-598l-170-170v768q0 34 25 59t59 25h684z" />
<glyph unicode="&#xe909;" glyph-name="chat_bubble_outline" d="M854 256.667v512h-684v-598l86 86h598zM854 852.667q34 0 59-25t25-59v-512q0-34-25-60t-59-26h-598l-170-170v768q0 34 25 59t59 25h684z" />
<glyph unicode="&#xe90a;" glyph-name="textsms" d="M726 468.667v86h-86v-86h86zM554 468.667v86h-84v-86h84zM384 468.667v86h-86v-86h86zM854 852.667q34 0 59-25t25-59v-512q0-34-25-60t-59-26h-598l-170-170v768q0 34 25 59t59 25h684z" />
<glyph unicode="&#xe90b;" glyph-name="mail_outline" d="M512 468.667l342 214h-684zM854 170.667v426l-342-212-342 212v-426h684zM854 768.667q34 0 59-26t25-60v-512q0-34-25-60t-59-26h-684q-34 0-59 26t-25 60v512q0 34 25 60t59 26h684z" />
<glyph unicode="&#xe90c;" glyph-name="call_missed_outgoing" d="M128 580.667l60 60 324-324 238 238h-196v86h342v-342h-86v196l-298-298z" />
<glyph unicode="&#xe90d;" glyph-name="cancel_presentation" d="M622 596.667l60-60-110-110 110-110-60-60-110 110-110-110-60 60 110 110-110 110 60 60 110-110zM896 810.667q34 0 60-26t26-60v-596q0-34-26-60t-60-26h-768q-34 0-60 26t-26 60v596q0 34 26 60t60 26h768zM896 124.667v600h-768v-600h768z" />
<glyph unicode="&#xe90e;" glyph-name="images" horiz-adv-x="1152" d="M1088 832h-64v64c0 35.2-28.8 64-64 64h-896c-35.2 0-64-28.8-64-64v-768c0-35.2 28.8-64 64-64h64v-64c0-35.2 28.8-64 64-64h896c35.2 0 64 28.8 64 64v768c0 35.2-28.8 64-64 64zM128 768v-640h-63.886c-0.040 0.034-0.082 0.076-0.114 0.116v767.77c0.034 0.040 0.076 0.082 0.114 0.114h895.77c0.040-0.034 0.082-0.076 0.116-0.116v-63.884h-768c-35.2 0-64-28.8-64-64v0zM1088 0.116c-0.034-0.040-0.076-0.082-0.116-0.116h-895.77c-0.040 0.034-0.082 0.076-0.114 0.116v767.77c0.034 0.040 0.076 0.082 0.114 0.114h895.77c0.040-0.034 0.082-0.076 0.116-0.116v-767.768zM960 608c0-53.020-42.98-96-96-96s-96 42.98-96 96 42.98 96 96 96 96-42.98 96-96zM1024 64h-768v128l224 384 256-320h64l224 192z" />
<glyph unicode="&#xe90f;" glyph-name="pause_presentation" d="M554 596.667h86v-340h-86v340zM384 596.667h86v-340h-86v340zM896 810.667q34 0 60-26t26-60v-596q0-34-26-60t-60-26h-768q-34 0-60 26t-26 60v596q0 34 26 60t60 26h768zM896 124.667v600h-768v-600h768z" />
<glyph unicode="&#xe910;" glyph-name="add" d="M810 384.667h-256v-256h-84v256h-256v84h256v256h84v-256h256v-84z" />
<glyph unicode="&#xe911;" glyph-name="block" d="M512 84.667q140 0 241 101t101 241q0 48-21 110t-51 100l-480-480q90-72 210-72zM170 426.667q0-48 21-110t51-100l480 480q-90 72-210 72-140 0-241-101t-101-241zM512 852.667q176 0 301-125t125-301-125-301-301-125-301 125-125 301 125 301 301 125z" />
<glyph unicode="&#xe912;" glyph-name="clear" d="M810 664.667l-238-238 238-238-60-60-238 238-238-238-60 60 238 238-238 238 60 60 238-238 238 238z" />
<glyph unicode="&#xe913;" glyph-name="content_copy" d="M810 42.667v598h-468v-598h468zM810 724.667q34 0 60-25t26-59v-598q0-34-26-60t-60-26h-468q-34 0-60 26t-26 60v598q0 34 26 59t60 25h468zM682 896.667v-86h-512v-598h-84v598q0 34 25 60t59 26h512z" />
<glyph unicode="&#xe914;" glyph-name="create" d="M884 638.667l-78-78-160 160 78 78q12 12 30 12t30-12l100-100q12-12 12-30t-12-30zM128 202.667l472 472 160-160-472-472h-160v160z" />
<glyph unicode="&#xe915;" glyph-name="drafts" d="M512 384.667l352 220-352 206-352-206zM938 596.667v-426q0-34-25-60t-59-26h-684q-34 0-59 26t-25 60v426q0 50 40 74l386 226 386-226q40-24 40-74z" />
<glyph unicode="&#xe916;" glyph-name="link2" d="M726 640.667q88 0 150-63t62-151-62-151-150-63h-172v82h172q54 0 93 39t39 93-39 93-93 39h-172v82h172zM342 384.667v84h340v-84h-340zM166 426.667q0-54 39-93t93-39h172v-82h-172q-88 0-150 63t-62 151 62 151 150 63h172v-82h-172q-54 0-93-39t-39-93z" />
<glyph unicode="&#xe917;" glyph-name="redo" d="M786 486.667l152 154v-384h-384l156 154q-96 80-220 80-102 0-197-68t-127-166l-100 32q44 136 161 222t263 86q170 0 296-110z" />
<glyph unicode="&#xe918;" glyph-name="remove1" d="M810 384.667h-596v84h596v-84z" />
<glyph unicode="&#xe919;" glyph-name="remove_circle" d="M726 384.667v84h-428v-84h428zM512 852.667q176 0 301-125t125-301-125-301-301-125-301 125-125 301 125 301 301 125z" />
<glyph unicode="&#xe91a;" glyph-name="remove_circle_outline" d="M512 84.667q140 0 241 101t101 241-101 241-241 101-241-101-101-241 101-241 241-101zM512 852.667q176 0 301-125t125-301-125-301-301-125-301 125-125 301 125 301 301 125zM298 468.667h428v-84h-428v84z" />
<glyph unicode="&#xe91b;" glyph-name="save_alt" d="M554 398.667l112 110 60-60-214-214-214 214 60 60 112-110v412h84v-412zM810 426.667h86v-298q0-34-26-60t-60-26h-596q-34 0-60 26t-26 60v298h86v-298h596v298z" />
<glyph unicode="&#xe91c;" glyph-name="brightness_high" d="M512 596.667q70 0 120-50t50-120-50-120-120-50-120 50-50 120 50 120 120 50zM512 170.667q106 0 181 75t75 181-75 181-181 75-181-75-75-181 75-181 181-75zM854 568.667l140-142-140-142v-200h-200l-142-140-142 140h-200v200l-140 142 140 142v200h200l142 140 142-140h200v-200z" />
<glyph unicode="&#xe91d;" glyph-name="brightness_low" d="M512 170.667q106 0 181 75t75 181-75 181-181 75-181-75-75-181 75-181 181-75zM854 284.667v-200h-200l-142-140-142 140h-200v200l-140 142 140 142v200h200l142 140 142-140h200v-200l140-142z" />
<glyph unicode="&#xe91e;" glyph-name="brightness_medium" d="M512 170.667q106 0 181 75t75 181-75 181-181 75v-512zM854 284.667v-200h-200l-142-140-142 140h-200v200l-140 142 140 142v200h200l142 140 142-140h200v-200l140-142z" />
<glyph unicode="&#xe91f;" glyph-name="insert_comment" d="M768 596.667v86h-512v-86h512zM768 468.667v86h-512v-86h512zM768 340.667v86h-512v-86h512zM854 852.667q34 0 59-25t25-59v-768l-170 170h-598q-34 0-59 26t-25 60v512q0 34 25 59t59 25h684z" />
<glyph unicode="&#xe920;" glyph-name="insert_drive_file" d="M554 554.667h236l-236 234v-234zM256 852.667h342l256-256v-512q0-34-26-59t-60-25h-512q-34 0-60 25t-26 59l2 684q0 34 25 59t59 25z" />
<glyph unicode="&#xe921;" glyph-name="insert_photo" d="M362 362.667l-148-192h596l-192 256-148-192zM896 128.667q0-34-26-60t-60-26h-596q-34 0-60 26t-26 60v596q0 34 26 60t60 26h596q34 0 60-26t26-60v-596z" />
<glyph unicode="&#xe922;" glyph-name="mode_comment" d="M938 768.667v-768l-170 170h-598q-34 0-59 26t-25 60v512q0 34 25 59t59 25h684q34 0 59-25t25-59z" />
<glyph unicode="&#xe923;" glyph-name="add_comment" d="M726 468.667v86h-172v170h-84v-170h-172v-86h172v-170h84v170h172zM938 768.667v-768l-170 170h-598q-34 0-59 26t-25 60v512q0 34 25 59t59 25h684q34 0 59-25t25-59z" />
<glyph unicode="&#xe924;" glyph-name="bar_chart" d="M692 384.667h118v-256h-118v256zM452 724.667h120v-596h-120v596zM214 546.667h128v-418h-128v418z" />
<glyph unicode="&#xe925;" glyph-name="notes" d="M128 384.667v84h768v-84h-768zM128 682.667h768v-86h-768v86zM128 170.667v86h512v-86h-512z" />
<glyph unicode="&#xe926;" glyph-name="attachment1" d="M86 404.667q0 98 68 167t166 69h448q70 0 120-51t50-121-50-120-120-50h-362q-44 0-76 31t-32 75 32 76 76 32h320v-86h-324q-18 0-18-21t18-21h366q34 0 60 25t26 59-26 60-60 26h-448q-62 0-106-44t-44-106 44-105 106-43h406v-86h-406q-98 0-166 68t-68 166z" />
<glyph unicode="&#xe927;" glyph-name="cloud2" d="M826 510.667q82-6 140-67t58-145q0-88-63-151t-151-63h-554q-106 0-181 75t-75 181q0 94 67 169t161 85q42 78 118 126t166 48q108 0 201-76t113-182z" />
<glyph unicode="&#xe928;" glyph-name="cloud_circle" d="M704 256.667q44 0 75 31t31 75-31 75-75 31h-22q0 70-50 121t-120 51q-54 0-102-38t-62-92l-6 2q-52 0-90-38t-38-90 38-90 90-38h362zM512 852.667q176 0 301-125t125-301-125-301-301-125-301 125-125 301 125 301 301 125z" />
<glyph unicode="&#xe929;" glyph-name="cloud_done" d="M426 212.667l282 282-60 60-222-220-88 88-60-60zM826 510.667q82-6 140-67t58-145q0-88-63-151t-151-63h-554q-106 0-181 75t-75 181q0 94 67 169t161 85q42 78 118 126t166 48q108 0 201-76t113-182z" />
<glyph unicode="&#xe92a;" glyph-name="cloud_download" d="M726 384.667h-128v170h-172v-170h-128l214-214zM826 510.667q82-6 140-67t58-145q0-88-63-151t-151-63h-554q-106 0-181 75t-75 181q0 94 67 169t161 85q42 78 118 126t166 48q108 0 201-76t113-182z" />
<glyph unicode="&#xe92b;" glyph-name="cloud_off" d="M330 512.667h-74q-70 0-120-51t-50-121 50-120 120-50h416zM128 714.667l54 54 714-714-54-54-86 84h-500q-106 0-181 75t-75 181q0 104 72 178t174 78zM826 510.667q82-6 140-67t58-145q0-110-90-174l-62 62q66 36 66 112 0 52-38 90t-90 38h-64v22q0 98-68 166t-166 68q-56 0-108-26l-64 62q78 50 172 50 108 0 201-76t113-182z" />
<glyph unicode="&#xe92c;" glyph-name="cloud_queue" d="M810 170.667q52 0 90 38t38 90-38 90-90 38h-64v22q0 98-68 166t-166 68q-80 0-142-48t-84-122h-30q-70 0-120-51t-50-121 50-120 120-50h554zM826 510.667q82-6 140-67t58-145q0-88-63-151t-151-63h-554q-106 0-181 75t-75 181q0 94 67 169t161 85q42 78 118 126t166 48q108 0 201-76t113-182z" />
<glyph unicode="&#xe92d;" glyph-name="cloud_upload" d="M598 384.667h128l-214 212-214-212h128v-172h172v172zM826 510.667q82-6 140-67t58-145q0-88-63-151t-151-63h-554q-106 0-181 75t-75 181q0 94 67 169t161 85q42 78 118 126t166 48q108 0 201-76t113-182z" />
<glyph unicode="&#xe92e;" glyph-name="file_download" d="M214 170.667h596v-86h-596v86zM810 554.667l-298-298-298 298h170v256h256v-256h170z" />
<glyph unicode="&#xe92f;" glyph-name="file_upload" d="M214 170.667h596v-86h-596v86zM384 256.667v256h-170l298 298 298-298h-170v-256h-256z" />
<glyph unicode="&#xe930;" glyph-name="folder2" d="M426 768.667l86-86h342q34 0 59-26t25-60v-426q0-34-25-60t-59-26h-684q-34 0-59 26t-25 60v512q0 34 25 60t59 26h256z" />
<glyph unicode="&#xe931;" glyph-name="folder_open" d="M854 170.667v426h-684v-426h684zM854 682.667q34 0 59-26t25-60v-426q0-34-25-60t-59-26h-684q-34 0-59 26t-25 60v512q0 34 25 60t59 26h256l86-86h342z" />
<glyph unicode="&#xe932;" glyph-name="folder_shared" d="M810 212.667v44q0 38-59 61t-111 23-111-23-59-61v-44h340zM640 554.667q-34 0-60-26t-26-60 26-59 60-25 60 25 26 59-26 60-60 26zM854 682.667q34 0 59-26t25-60v-426q0-34-25-60t-59-26h-684q-34 0-59 26t-25 60v512q0 34 25 60t59 26h256l86-86h342z" />
<glyph unicode="&#xe933;" glyph-name="create_new_folder" d="M810 340.667v86h-128v128h-84v-128h-128v-86h128v-128h84v128h128zM854 682.667q36 0 60-25t24-61v-426q0-36-24-61t-60-25h-684q-36 0-60 25t-24 61v512q0 36 24 61t60 25h256l86-86h342z" />
<glyph unicode="&#xe934;" glyph-name="keyboard_arrow_down" d="M316 572.667l196-196 196 196 60-60-256-256-256 256z" />
<glyph unicode="&#xe935;" glyph-name="keyboard_arrow_left" d="M658 230.667l-60-60-256 256 256 256 60-60-196-196z" />
<glyph unicode="&#xe936;" glyph-name="keyboard_arrow_right" d="M366 230.667l196 196-196 196 60 60 256-256-256-256z" />
<glyph unicode="&#xe937;" glyph-name="keyboard_arrow_up" d="M316 280.667l-60 60 256 256 256-256-60-60-196 196z" />
<glyph unicode="&#xe938;" glyph-name="keyboard_backspace" d="M896 468.667v-84h-604l152-154-60-60-256 256 256 256 60-60-152-154h604z" />
<glyph unicode="&#xe939;" glyph-name="keyboard_capslock" d="M256 170.667v86h512v-86h-512zM512 580.667l-196-196-60 60 256 256 256-256-60-60z" />
<glyph unicode="&#xe93a;" glyph-name="keyboard_return" d="M810 640.667h86v-256h-648l154-154-60-60-256 256 256 256 60-60-154-154h562v172z" />
<glyph unicode="&#xe93b;" glyph-name="keyboard_tab" d="M854 682.667h84v-512h-84v512zM494 622.667l60 60 256-256-256-256-60 60 154 154h-606v84h606z" />
<glyph unicode="&#xe93c;" glyph-name="brightness_1" d="M86 426.667q0 176 125 301t301 125 301-125 125-301-125-301-301-125-301 125-125 301z" />
<glyph unicode="&#xe93d;" glyph-name="brightness_2" d="M426 852.667q178 0 303-125t125-301-125-301-303-125q-116 0-212 56 98 56 155 155t57 215-57 215-155 155q96 56 212 56z" />
<glyph unicode="&#xe93e;" glyph-name="brightness_3" d="M384 852.667q176 0 301-125t125-301-125-301-301-125q-68 0-128 18 132 40 215 153t83 255-83 255-215 153q60 18 128 18z" />
<glyph unicode="&#xe93f;" glyph-name="brightness_4" d="M512 170.667q106 0 181 75t75 181-75 181-181 75q-52 0-106-24 66-30 107-93t41-139-41-139-107-93q54-24 106-24zM854 568.667l140-142-140-142v-200h-200l-142-140-142 140h-200v200l-140 142 140 142v200h200l142 140 142-140h200v-200z" />
<glyph unicode="&#xe940;" glyph-name="broken_image" d="M768 450.667l128-128v-194q0-34-26-60t-60-26h-596q-34 0-60 26t-26 60v280l128-128 170 172 172-172zM896 724.667v-280l-128 128-170-172-172 172-170-172-128 130v194q0 34 26 60t60 26h596q34 0 60-26t26-60z" />
<glyph unicode="&#xe941;" glyph-name="crop_16_9" d="M810 256.667v340h-596v-340h596zM810 682.667q34 0 60-26t26-60v-340q0-34-26-60t-60-26h-596q-34 0-60 26t-26 60v340q0 34 26 60t60 26h596z" />
<glyph unicode="&#xe942;" glyph-name="crop_3_2" d="M810 170.667v512h-596v-512h596zM810 768.667q34 0 60-26t26-60v-512q0-34-26-60t-60-26h-596q-34 0-60 26t-26 60v512q0 34 26 60t60 26h596z" />
<glyph unicode="&#xe943;" glyph-name="crop" d="M298 212.667h684v-84h-172v-172h-84v172h-428q-34 0-59 25t-25 59v428h-172v84h172v172h84v-684zM726 298.667v342h-342v84h342q34 0 59-25t25-59v-342h-84z" />
<glyph unicode="&#xe944;" glyph-name="crop_5_4" d="M810 212.667v428h-596v-428h596zM810 724.667q34 0 60-25t26-59v-428q0-34-26-59t-60-25h-596q-34 0-60 25t-26 59v428q0 34 26 59t60 25h596z" />
<glyph unicode="&#xe945;" glyph-name="crop_7_5" d="M810 298.667v256h-596v-256h596zM810 640.667q34 0 60-26t26-60v-256q0-34-26-60t-60-26h-596q-34 0-60 26t-26 60v256q0 34 26 60t60 26h596z" />
<glyph unicode="&#xe946;" glyph-name="crop_din" d="M810 128.667v596h-596v-596h596zM810 810.667q34 0 60-26t26-60v-596q0-34-26-60t-60-26h-596q-34 0-60 26t-26 60v596q0 34 26 60t60 26h596z" />
<glyph unicode="&#xe947;" glyph-name="crop_free" d="M810 810.667q34 0 60-26t26-60v-170h-86v170h-170v86h170zM810 128.667v170h86v-170q0-34-26-60t-60-26h-170v86h170zM214 298.667v-170h170v-86h-170q-34 0-60 26t-26 60v170h86zM128 724.667q0 34 26 60t60 26h170v-86h-170v-170h-86v170z" />
<glyph unicode="&#xe948;" glyph-name="crop_original" d="M596 414.667l150-202h-468l116 152 84-102zM810 128.667v596h-596v-596h596zM810 810.667q34 0 60-26t26-60v-596q0-34-26-60t-60-26h-596q-34 0-60 26t-26 60v596q0 34 26 60t60 26h596z" />
<glyph unicode="&#xe949;" glyph-name="crop_portrait" d="M726 128.667v596h-428v-596h428zM726 810.667q34 0 59-26t25-60v-596q0-34-25-60t-59-26h-428q-34 0-59 26t-25 60v596q0 34 25 60t59 26h428z" />
<glyph unicode="&#xe94a;" glyph-name="crop_square" d="M768 170.667v512h-512v-512h512zM768 768.667q34 0 60-26t26-60v-512q0-34-26-60t-60-26h-512q-34 0-60 26t-26 60v512q0 34 26 60t60 26h512z" />
<glyph unicode="&#xe94b;" glyph-name="dehaze" d="M86 704.667h852v-86h-852v86zM86 490.667h852v-86h-852v86zM86 276.667h852v-84h-852v84z" />
<glyph unicode="&#xe94c;" glyph-name="exposure" d="M618 256.667h-84v64h84v84h64v-84h86v-64h-86v-86h-64v86zM810 128.667v596l-596-596h596zM256 640.667v-64h214v64h-214zM810 810.667q34 0 60-26t26-60v-596q0-34-26-60t-60-26h-596q-34 0-60 26t-26 60v596q0 34 26 60t60 26h596z" />
<glyph unicode="&#xe94d;" glyph-name="exposure_neg_1" d="M810 170.667h-84v454l-128-44v72l200 72h12v-554zM170 468.667h342v-84h-342v84z" />
<glyph unicode="&#xe94e;" glyph-name="exposure_neg_2" d="M86 468.667h340v-84h-340v84zM642 242.667h254v-72h-368v64l178 194q36 36 62 80 14 24 14 56 0 26-4 36-20 52-76 52-92 0-92-98h-92q0 72 48 120 50 50 136 50h4q118 0 158-88 10-22 10-62 0-28-8-50-14-38-22-50-34-54-80-100z" />
<glyph unicode="&#xe94f;" glyph-name="exposure_plus_1" d="M854 170.667h-86v454l-128-44v72l200 72h14v-554zM426 640.667v-172h172v-84h-172v-172h-84v172h-172v84h172v172h84z" />
<glyph unicode="&#xe950;" glyph-name="exposure_plus_2" d="M342 640.667v-172h170v-84h-170v-172h-86v172h-170v84h170v172h86zM684 242.667h254v-72h-368v64l178 194q36 36 62 80 16 26 16 56 0 32-22 62-20 26-60 26-42 0-70-28-22-22-22-70h-92q0 72 48 120 28 28 58 38 36 12 80 12h2q118 0 158-88 12-26 12-62 0-48-32-100-24-40-34-50-28-32-46-50z" />
<glyph unicode="&#xe951;" glyph-name="exposure_zero" d="M598 506.667q0 80-22 114-8 12-28 24-14 8-36 8t-36-8q-20-12-28-24-22-34-22-114v-114q0-112 50-142 14-8 36-8 42 0 64 34 24 36 24 116v114h-2zM336 492.667q0 232 176 232 130 0 164-124 14-52 14-108v-88h-2q0-118-48-180-28-32-56-42-32-12-72-12t-72 12q-28 10-56 42-48 54-48 180v88z" />
<glyph unicode="&#xe952;" glyph-name="filter_1" d="M896 212.667v598h-598v-598h598zM896 896.667q34 0 60-26t26-60v-598q0-34-26-59t-60-25h-598q-34 0-59 25t-25 59v598q0 34 25 60t59 26h598zM598 298.667v342h-86v84h170v-426h-84zM128 724.667v-682h682v-86h-682q-34 0-60 26t-26 60v682h86z" />
<glyph unicode="&#xe953;" glyph-name="filter_2" d="M726 384.667v-86h-256v170q0 36 24 61t60 25h86v86h-170v84h170q36 0 61-24t25-60v-86q0-36-25-61t-61-25h-86v-84h172zM896 212.667v598h-598v-598h598zM896 896.667q34 0 60-26t26-60v-598q0-34-26-59t-60-25h-598q-34 0-59 25t-25 59v598q0 34 25 60t59 26h598zM128 724.667v-682h682v-86h-682q-34 0-60 26t-26 60v682h86z" />
<glyph unicode="&#xe954;" glyph-name="filter_3" d="M726 384.667q0-36-25-61t-61-25h-170v86h170v84h-86v86h86v86h-170v84h170q36 0 61-24t25-60v-64q0-26-19-45t-45-19q26 0 45-19t19-45v-64zM128 724.667v-682h682v-86h-682q-34 0-60 26t-26 60v682h86zM896 212.667v598h-598v-598h598zM896 896.667q34 0 60-26t26-60v-598q0-34-26-59t-60-25h-598q-34 0-59 25t-25 59v598q0 34 25 60t59 26h598z" />
<glyph unicode="&#xe955;" glyph-name="filter" d="M896 212.667v598h-598v-598h598zM896 896.667q34 0 60-26t26-60v-598q0-34-26-59t-60-25h-598q-34 0-59 25t-25 59v598q0 34 25 60t59 26h598zM128 724.667v-682h682v-86h-682q-34 0-60 26t-26 60v682h86zM680 498.667l152-200h-470l118 150 84-100z" />
<glyph unicode="&#xe956;" glyph-name="filter_4" d="M896 212.667v598h-598v-598h598zM896 896.667q34 0 60-26t26-60v-598q0-34-26-59t-60-25h-598q-34 0-59 25t-25 59v598q0 34 25 60t59 26h598zM640 298.667v170h-170v256h84v-170h86v170h86v-426h-86zM128 724.667v-682h682v-86h-682q-34 0-60 26t-26 60v682h86z" />
<glyph unicode="&#xe957;" glyph-name="filter_5" d="M726 384.667q0-36-25-61t-61-25h-170v86h170v84h-170v256h256v-84h-172v-86h86q36 0 61-25t25-61v-84zM128 724.667v-682h682v-86h-682q-34 0-60 26t-26 60v682h86zM896 212.667v598h-598v-598h598zM896 896.667q34 0 60-26t26-60v-598q0-34-26-59t-60-25h-598q-34 0-59 25t-25 59v598q0 34 25 60t59 26h598z" />
<glyph unicode="&#xe958;" glyph-name="filter_6" d="M554 468.667v-84h86v84h-86zM554 298.667q-36 0-60 25t-24 61v256q0 36 24 60t60 24h172v-84h-172v-86h86q36 0 61-25t25-61v-84q0-36-25-61t-61-25h-86zM896 212.667v598h-598v-598h598zM896 896.667q34 0 60-26t26-60v-598q0-34-26-59t-60-25h-598q-34 0-59 25t-25 59v598q0 34 25 60t59 26h598zM128 724.667v-682h682v-86h-682q-34 0-60 26t-26 60v682h86z" />
<glyph unicode="&#xe959;" glyph-name="filter_7" d="M554 298.667h-84l170 342h-170v84h256v-84zM896 212.667v598h-598v-598h598zM896 896.667q34 0 60-26t26-60v-598q0-34-26-59t-60-25h-598q-34 0-59 25t-25 59v598q0 34 25 60t59 26h598zM128 724.667v-682h682v-86h-682q-34 0-60 26t-26 60v682h86z" />
<glyph unicode="&#xe95a;" glyph-name="filter_8" d="M554 468.667v-84h86v84h-86zM554 640.667v-86h86v86h-86zM554 298.667q-36 0-60 25t-24 61v64q0 26 19 45t45 19q-26 0-45 19t-19 45v64q0 36 24 60t60 24h86q36 0 61-24t25-60v-64q0-26-19-45t-45-19q26 0 45-19t19-45v-64q0-36-25-61t-61-25h-86zM896 212.667v598h-598v-598h598zM896 896.667q34 0 60-26t26-60v-598q0-34-26-59t-60-25h-598q-34 0-59 25t-25 59v598q0 34 25 60t59 26h598zM128 724.667v-682h682v-86h-682q-34 0-60 26t-26 60v682h86z" />
<glyph unicode="&#xe95b;" glyph-name="filter_9" d="M640 554.667v86h-86v-86h86zM640 724.667q36 0 61-24t25-60v-256q0-36-25-61t-61-25h-170v86h170v84h-86q-36 0-60 25t-24 61v86q0 36 24 60t60 24h86zM896 212.667v598h-598v-598h598zM896 896.667q34 0 60-26t26-60v-598q0-34-26-59t-60-25h-598q-34 0-59 25t-25 59v598q0 34 25 60t59 26h598zM128 724.667v-682h682v-86h-682q-34 0-60 26t-26 60v682h86z" />
<glyph unicode="&#xe95c;" glyph-name="filter_9_plus" d="M896 554.667v256h-598v-598h598v256h-86v-84h-84v84h-86v86h86v86h84v-86h86zM896 896.667q34 0 60-26t26-60v-598q0-34-26-59t-60-25h-598q-34 0-59 25t-25 59v598q0 34 25 60t59 26h598zM470 554.667h42v42h-42v-42zM598 426.667q0-36-25-61t-61-25h-128v86h128v42h-42q-36 0-61 25t-25 61v42q0 36 25 61t61 25h42q36 0 61-25t25-61v-170zM128 724.667v-682h682v-86h-682q-34 0-60 26t-26 60v682h86z" />
<glyph unicode="&#xe95d;" glyph-name="filter_vintage" d="M512 256.667q70 0 120 50t50 120-50 120-120 50-120-50-50-120 50-120 120-50zM636 642.667q70 56 162 56 68 0 128-34 0-62-38-126t-90-94q-4-2-11-6t-13-7-12-5q18-8 36-18 52-30 90-94t38-126q-60-34-128-34-92 0-162 56 4-28 4-40 0-70-35-129t-93-93q-58 34-93 93t-35 129q0 12 4 40-70-56-162-56-68 0-128 34 0 74 48 145t116 93l-36 18q-52 30-90 94t-38 126q64 36 128 36 90 0 162-58-4 28-4 40 0 70 35 129t93 93q58-34 93-93t35-129q0-12-4-40z" />
<glyph unicode="&#xe95e;" glyph-name="hdr_strong" d="M214 340.667q34 0 59 26t25 60-25 60-59 26-60-26-26-60 26-60 60-26zM214 596.667q70 0 120-50t50-120-50-120-120-50-121 50-51 120 51 120 121 50zM726 682.667q106 0 181-75t75-181-75-181-181-75-181 75-75 181 75 181 181 75z" />
<glyph unicode="&#xe95f;" glyph-name="hdr_weak" d="M726 256.667q70 0 120 50t50 120-50 120-120 50-121-50-51-120 51-120 121-50zM726 682.667q106 0 181-75t75-181-75-181-181-75-181 75-75 181 75 181 181 75zM214 596.667q70 0 120-50t50-120-50-120-120-50-121 50-51 120 51 120 121 50z" />
<glyph unicode="&#xe960;" glyph-name="looks_3" d="M640 490.667v64q0 36-24 61t-60 25h-172v-86h172v-86h-86v-84h86v-86h-172v-86h172q36 0 60 25t24 61v64q0 28-18 46t-46 18q28 0 46 18t18 46zM812 810.667q34 0 59-26t25-60v-596q0-34-25-60t-59-26h-598q-34 0-60 26t-26 60v596q0 34 26 60t60 26h598z" />
<glyph unicode="&#xe961;" glyph-name="looks_4" d="M640 212.667v428h-86v-172h-84v172h-86v-256h170v-172h86zM810 810.667q34 0 60-26t26-60v-596q0-34-26-60t-60-26h-596q-34 0-60 26t-26 60v596q0 34 26 60t60 26h596z" />
<glyph unicode="&#xe962;" glyph-name="looks_5" d="M640 554.667v86h-256v-256h170v-86h-170v-86h170q36 0 61 25t25 61v86q0 36-25 60t-61 24h-84v86h170zM810 810.667q34 0 60-26t26-60v-596q0-34-26-60t-60-26h-596q-34 0-60 26t-26 60v596q0 34 26 60t60 26h596z" />
<glyph unicode="&#xe963;" glyph-name="looks_6" d="M640 554.667v86h-170q-36 0-61-25t-25-61v-256q0-36 25-61t61-25h84q36 0 61 25t25 61v86q0 36-25 60t-61 24h-84v86h170zM810 810.667q34 0 60-26t26-60v-596q0-34-26-60t-60-26h-596q-34 0-60 26t-26 60v596q0 34 26 60t60 26h596zM470 298.667v86h84v-86h-84z" />
<glyph unicode="&#xe964;" glyph-name="looks_one" d="M598 212.667v428h-172v-86h86v-342h86zM810 810.667q34 0 60-26t26-60v-596q0-34-26-60t-60-26h-596q-34 0-60 26t-26 60v596q0 34 26 60t60 26h596z" />
<glyph unicode="&#xe965;" glyph-name="looks_two" d="M640 468.667v86q0 36-25 61t-61 25h-170v-86h170v-86h-84q-36 0-61-24t-25-60v-172h256v86h-170v86h84q36 0 61 24t25 60zM810 810.667q34 0 60-26t26-60v-596q0-34-26-60t-60-26h-596q-34 0-60 26t-26 60v596q0 34 26 60t60 26h596z" />
<glyph unicode="&#xe966;" glyph-name="music_note" d="M512 810.667h256v-170h-170v-428q0-70-51-120t-121-50-120 50-50 120 50 121 120 51q42 0 86-24v450z" />
<glyph unicode="&#xe967;" glyph-name="navigate_before" d="M658 622.667l-196-196 196-196-60-60-256 256 256 256z" />
<glyph unicode="&#xe968;" glyph-name="navigate_next" d="M426 682.667l256-256-256-256-60 60 196 196-196 196z" />
<glyph unicode="&#xe969;" glyph-name="panorama" d="M362 404.667l-148-192h596l-192 256-148-192zM982 170.667q0-34-26-60t-60-26h-768q-34 0-60 26t-26 60v512q0 34 26 60t60 26h768q34 0 60-26t26-60v-512z" />
<glyph unicode="&#xe96a;" glyph-name="panorama_fisheye" d="M512 84.667q140 0 241 101t101 241-101 241-241 101-241-101-101-241 101-241 241-101zM512 852.667q176 0 301-125t125-301-125-301-301-125-301 125-125 301 125 301 301 125z" />
<glyph unicode="&#xe96b;" glyph-name="panorama_horizontal" d="M914 768.667q24 0 24-28v-628q0-28-24-28-4 0-12 4-192 70-390 70t-390-70q-8-4-12-4-24 0-24 28v628q0 28 24 28 4 0 12-4 192-70 390-70t390 70q8 4 12 4zM854 658.667q-156-48-342-48-176 0-342 48v-464q164 48 342 48 176 0 342-48v464z" />
<glyph unicode="&#xe96c;" glyph-name="panorama_vertical" d="M280 84.667h464q-48 166-48 342t48 342h-464q48-164 48-342 0-176-48-342zM850 36.667q4-8 4-12 0-24-28-24h-628q-28 0-28 24 0 4 4 12 70 192 70 390t-70 390q-4 8-4 12 0 24 28 24h628q28 0 28-24 0-4-4-12-70-192-70-390t70-390z" />
<glyph unicode="&#xe96d;" glyph-name="panorama_wide_angle" d="M512 768.667q154 0 340-32l38-6 12-38q36-132 36-266t-36-266l-12-38-38-6q-186-32-340-32t-340 32l-38 6-12 38q-36 132-36 266t36 266l12 38 38 6q186 32 340 32zM512 682.667q-140 0-312-28-30-116-30-228t30-228q172-28 312-28t312 28q30 116 30 228t-30 228q-172 28-312 28z" />
<glyph unicode="&#xe96e;" glyph-name="photo_album" d="M256 128.667h512l-164 218-128-164-92 110zM256 768.667v-342l106 64 108-64v342h-214zM768 852.667q34 0 60-25t26-59v-684q0-34-26-59t-60-25h-512q-34 0-60 25t-26 59v684q0 34 26 59t60 25h512z" />
<glyph unicode="&#xe96f;" glyph-name="picture_as_pdf" d="M598 448.667v128h42v-128h-42zM170 682.667v-598h598v-84h-598q-34 0-59 25t-25 59v598h84zM384 532.667v44h42v-44h-42zM874 576.667v64h-128v-256h64v84h64v64h-64v44h64zM704 448.667v128q0 26-18 45t-46 19h-106v-256h106q28 0 46 19t18 45zM490 532.667v44q0 26-19 45t-45 19h-106v-256h64v84h42q26 0 45 19t19 45zM854 852.667q34 0 59-25t25-59v-512q0-34-25-60t-59-26h-512q-34 0-60 26t-26 60v512q0 34 26 59t60 25h512z" />
<glyph unicode="&#xe970;" glyph-name="portrait" d="M810 128.667v596h-596v-596h596zM810 810.667q34 0 60-26t26-60v-596q0-34-26-60t-60-26h-596q-34 0-60 26t-26 60v596q0 34 26 60t60 26h596zM704 244.667v-32h-384v32q0 44 66 70t126 26 126-26 66-70zM512 416.667q-40 0-68 29t-28 67 28 67 68 29 68-29 28-67-28-67-68-29z" />
<glyph unicode="&#xe971;" glyph-name="remove_red_eye" d="M512 554.667q52 0 90-38t38-90-38-90-90-38-90 38-38 90 38 90 90 38zM512 212.667q88 0 151 63t63 151-63 151-151 63-151-63-63-151 63-151 151-63zM512 746.667q158 0 286-88t184-232q-56-144-184-232t-286-88-286 88-184 232q56 144 184 232t286 88z" />
<glyph unicode="&#xe972;" glyph-name="view_comfy" d="M768 724.667h170v-170h-170v170zM768 128.667v170h170v-170h-170zM554 128.667v170h172v-170h-172zM342 128.667v170h170v-170h-170zM128 128.667v170h170v-170h-170zM768 340.667v172h170v-172h-170zM554 724.667h172v-170h-172v170zM342 554.667v170h170v-170h-170zM554 340.667v172h172v-172h-172zM342 340.667v172h170v-172h-170zM128 340.667v172h170v-172h-170zM128 554.667v170h170v-170h-170z" />
<glyph unicode="&#xe973;" glyph-name="photo_size_select_actual" d="M214 212.667h596l-192 256-148-192-108 128zM896 810.667q32 0 59-27t27-59v-596q0-32-27-59t-59-27h-768q-34 0-60 26t-26 60v596q0 32 27 59t59 27h768z" />
<glyph unicode="&#xe974;" glyph-name="apps" d="M682 84.667v172h172v-172h-172zM682 340.667v172h172v-172h-172zM426 596.667v172h172v-172h-172zM682 768.667h172v-172h-172v172zM426 340.667v172h172v-172h-172zM170 340.667v172h172v-172h-172zM170 84.667v172h172v-172h-172zM426 84.667v172h172v-172h-172zM170 596.667v172h172v-172h-172z" />
<glyph unicode="&#xe975;" glyph-name="arrow_back" d="M854 468.667v-84h-520l238-240-60-60-342 342 342 342 60-60-238-240h520z" />
<glyph unicode="&#xe976;" glyph-name="arrow_drop_down" d="M298 512.667h428l-214-214z" />
<glyph unicode="&#xe977;" glyph-name="arrow_drop_down_circle" d="M512 340.667l170 172h-340zM512 852.667q176 0 301-125t125-301-125-301-301-125-301 125-125 301 125 301 301 125z" />
<glyph unicode="&#xe978;" glyph-name="arrow_drop_up" d="M298 340.667l214 214 214-214h-428z" />
<glyph unicode="&#xe979;" glyph-name="arrow_forward" d="M512 768.667l342-342-342-342-60 60 238 240h-520v84h520l-238 240z" />
<glyph unicode="&#xe97a;" glyph-name="cancel" d="M726 272.667l-154 154 154 154-60 60-154-154-154 154-60-60 154-154-154-154 60-60 154 154 154-154zM512 852.667q176 0 301-125t125-301-125-301-301-125-301 125-125 301 125 301 301 125z" />
<glyph unicode="&#xe97b;" glyph-name="check1" d="M384 248.667l452 452 60-60-512-512-238 238 60 60z" />
<glyph unicode="&#xe97c;" glyph-name="expand_less" d="M512 596.667l256-256-60-60-196 196-196-196-60 60z" />
<glyph unicode="&#xe97d;" glyph-name="expand_more" d="M708 572.667l60-60-256-256-256 256 60 60 196-196z" />
<glyph unicode="&#xe97e;" glyph-name="fullscreen" d="M598 724.667h212v-212h-84v128h-128v84zM726 212.667v128h84v-212h-212v84h128zM214 512.667v212h212v-84h-128v-128h-84zM298 340.667v-128h128v-84h-212v212h84z" />
<glyph unicode="&#xe97f;" glyph-name="fullscreen_exit" d="M682 596.667h128v-84h-212v212h84v-128zM598 128.667v212h212v-84h-128v-128h-84zM342 596.667v128h84v-212h-212v84h128zM214 256.667v84h212v-212h-84v128h-128z" />
<glyph unicode="&#xe980;" glyph-name="menu1" d="M128 682.667h768v-86h-768v86zM128 384.667v84h768v-84h-768zM128 170.667v86h768v-86h-768z" />
<glyph unicode="&#xe981;" glyph-name="keyboard_control" d="M512 512.667q34 0 60-26t26-60-26-60-60-26-60 26-26 60 26 60 60 26zM768 512.667q34 0 60-26t26-60-26-60-60-26-60 26-26 60 26 60 60 26zM256 512.667q34 0 60-26t26-60-26-60-60-26-60 26-26 60 26 60 60 26z" />
<glyph unicode="&#xe982;" glyph-name="more_vert" d="M512 256.667q34 0 60-26t26-60-26-60-60-26-60 26-26 60 26 60 60 26zM512 512.667q34 0 60-26t26-60-26-60-60-26-60 26-26 60 26 60 60 26zM512 596.667q-34 0-60 26t-26 60 26 60 60 26 60-26 26-60-26-60-60-26z" />
<glyph unicode="&#xe983;" glyph-name="refresh" d="M754 668.667l100 100v-300h-300l138 138q-76 76-180 76-106 0-181-75t-75-181 75-181 181-75q74 0 145 50t97 120h88q-28-112-120-184t-210-72q-140 0-240 100t-100 242 100 242 240 100q60 0 131-29t111-71z" />
<glyph unicode="&#xe984;" glyph-name="unfold_less" d="M708 708.667l-196-196-196 196 60 60 136-136 136 136zM316 144.667l196 196 196-196-60-60-136 136-136-136z" />
<glyph unicode="&#xe985;" glyph-name="unfold_more" d="M512 162.667l136 136 60-60-196-196-196 196 60 60zM512 690.667l-136-136-60 60 196 196 196-196-60-60z" />
<glyph unicode="&#xe986;" glyph-name="arrow_upward" d="M170 426.667l342 342 342-342-62-60-238 238v-520h-84v520l-240-238z" />
<glyph unicode="&#xe987;" glyph-name="subdirectory_arrow_left" d="M470 554.667l60-60-154-154h392v428h86v-512h-478l154-154-60-60-256 256z" />
<glyph unicode="&#xe988;" glyph-name="subdirectory_arrow_right" d="M810 298.667l-256-256-60 60 154 154h-478v512h86v-428h392l-154 154 60 60z" />
<glyph unicode="&#xe989;" glyph-name="arrow_downward" d="M854 426.667l-342-342-342 342 62 60 238-238v520h84v-520l240 238z" />
<glyph unicode="&#xe98a;" glyph-name="first_page" d="M256 682.667h86v-512h-86v512zM786 230.667l-60-60-256 256 256 256 60-60-196-196z" />
<glyph unicode="&#xe98b;" glyph-name="last_page" d="M682 682.667h86v-512h-86v512zM238 622.667l60 60 256-256-256-256-60 60 196 196z" />
<glyph unicode="&#xe98c;" glyph-name="arrow_left" d="M598 640.667v-428l-214 214z" />
<glyph unicode="&#xe98d;" glyph-name="arrow_right" d="M426 212.667v428l214-214z" />
<glyph unicode="&#xe98e;" glyph-name="arrow_back_ios" d="M498 772.667l-346-346 346-346-76-76-422 422 422 422z" />
<glyph unicode="&#xe98f;" glyph-name="arrow_forward_ios" d="M250 762.667l92 90 426-426-426-426-92 90 338 336z" />
<glyph unicode="&#xe990;" glyph-name="mms" d="M214 340.667h596l-192 256-148-192-108 128zM854 852.667q34 0 59-25t25-59v-512q0-34-25-60t-59-26h-598l-170-170v768q0 34 25 59t59 25h684z" />
<glyph unicode="&#xe991;" glyph-name="more" d="M810 362.667q26 0 45 18t19 46-19 46-45 18-45-18-19-46 19-46 45-18zM598 362.667q26 0 45 18t19 46-19 46-45 18-45-18-19-46 19-46 45-18zM384 362.667q28 0 46 18t18 46-18 46-46 18-46-18-18-46 18-46 46-18zM938 810.667q34 0 60-26t26-60v-596q0-34-26-60t-60-26h-636q-44 0-72 38l-230 346 230 346q28 38 68 38h640z" />
<glyph unicode="&#xe992;" glyph-name="phone_in_talk" d="M640 426.667q0 52-38 90t-90 38v86q88 0 151-63t63-151h-86zM810 426.667q0 124-87 211t-211 87v86q160 0 272-112t112-272h-86zM854 276.667q18 0 30-12t12-30v-150q0-18-12-30t-30-12q-300 0-513 213t-213 513q0 18 12 30t30 12h150q18 0 30-12t12-30v-2q0-82 24-150 4-8 4-14 0-20-14-30l-94-94q40-76 123-159t159-123l94 94q14 14 30 14 6 0 14-4 72-24 152-24z" />
<glyph unicode="&#xe993;" glyph-name="sim_card_alert" d="M554 384.667v212h-84v-212h84zM554 212.667v86h-84v-86h84zM768 852.667q34 0 60-25t26-59v-684q0-34-26-59t-60-25h-512q-34 0-60 25t-26 59l2 512 254 256h342z" />
<glyph unicode="&#xe994;" glyph-name="sms_failed" d="M554 512.667v170h-84v-170h84zM554 340.667v86h-84v-86h84zM854 852.667q34 0 59-25t25-59v-512q0-34-25-60t-59-26h-598l-170-170v768q0 34 25 59t59 25h684z" />
<glyph unicode="&#xe995;" glyph-name="vpn_lock" d="M426 44.667v84q-34 0-59 25t-25 59v44l-206 204q-8-32-8-76 0-130 86-227t212-113zM808 426.667h86q2-14 2-42 0-178-125-303t-301-125q-178 0-303 125t-125 303q0 176 125 301t303 125q62 0 128-20v-108q0-34-26-60t-60-26h-86v-84q0-18-12-31t-30-13h-86v-84h256q18 0 31-13t13-31v-128h42q62 0 82-58 88 94 88 230 0 28-2 42zM904 768.667v20q0 30-21 52t-51 22-51-22-21-52v-20h144zM938 768.667q18 0 31-13t13-31v-170q0-18-13-30t-31-12h-212q-18 0-31 12t-13 30v170q0 18 13 31t31 13v20q0 44 31 76t75 32 75-32 31-76v-20z" />
<glyph unicode="&#xe996;" glyph-name="priority_high" d="M426 810.667h172v-512h-172v512zM426 128.667q0 36 25 60t61 24 61-24 25-60-25-61-61-25-61 25-25 61z" />
<glyph unicode="&#xe997;" glyph-name="notifications" d="M768 256.667l86-86v-42h-684v42l86 86v212q0 100 51 174t141 96v30q0 26 18 45t46 19 46-19 18-45v-30q90-22 141-96t51-174v-212zM512 0.667q-36 0-61 24t-25 60h172q0-34-26-59t-60-25z" />
<glyph unicode="&#xe998;" glyph-name="notifications_none" d="M682 212.667v256q0 82-46 137t-124 55-124-55-46-137v-256h340zM768 256.667l86-86v-42h-684v42l86 86v212q0 100 51 174t141 96v30q0 26 18 45t46 19 46-19 18-45v-30q90-22 141-96t51-174v-212zM512 0.667q-34 0-60 25t-26 59h172q0-34-26-59t-60-25z" />
<glyph unicode="&#xe999;" glyph-name="people_outline" d="M704 660.667q-34 0-60-25t-26-59 26-60 60-26 60 26 26 60-26 59-60 25zM704 426.667q-62 0-106 44t-44 106 44 105 106 43 106-43 44-105-44-106-106-44zM320 660.667q-34 0-60-25t-26-59 26-60 60-26 60 26 26 60-26 59-60 25zM320 426.667q-62 0-106 44t-44 106 44 105 106 43 106-43 44-105-44-106-106-44zM918 192.667v52q0 20-71 48t-143 28q-52 0-128-24 22-26 22-52v-52h320zM534 192.667v52q0 20-71 48t-143 28-143-28-71-48v-52h428zM704 384.667q86 0 182-39t96-101v-116h-940v116q0 62 96 101t182 39q94 0 192-44 98 44 192 44z" />
<glyph unicode="&#xe99a;" glyph-name="person" d="M512 340.667q108 0 225-47t117-123v-86h-684v86q0 76 117 123t225 47zM512 426.667q-70 0-120 50t-50 120 50 121 120 51 120-51 50-121-50-120-120-50z" />
<glyph unicode="&#xe99b;" glyph-name="person_add" d="M640 340.667q108 0 225-47t117-123v-86h-684v86q0 76 117 123t225 47zM256 512.667h128v-86h-128v-128h-86v128h-128v86h128v128h86v-128zM640 426.667q-70 0-120 50t-50 120 50 121 120 51 120-51 50-121-50-120-120-50z" />
<glyph unicode="&#xe99c;" glyph-name="person_outline" d="M512 384.667q64 0 140-18t139-60 63-94v-128h-684v128q0 52 63 94t139 60 140 18zM512 768.667q70 0 120-51t50-121-50-120-120-50-120 50-50 120 50 121 120 51zM512 302.667q-88 0-174-33t-86-57v-46h520v46q0 24-86 57t-174 33zM512 686.667q-38 0-64-26t-26-64 26-63 64-25 64 25 26 63-26 64-64 26z" />
<glyph unicode="&#xe99d;" glyph-name="plus_one" d="M618 678.667l192 46v-554h-84v452l-108-22v78zM426 596.667v-170h172v-86h-172v-170h-84v170h-172v86h172v170h84z" />
<glyph unicode="&#xe99e;" glyph-name="school" d="M512 810.667l470-256v-342h-86v296l-384-210-470 256zM214 376.667l298-164 298 164v-172l-298-162-298 162v172z" />
<glyph unicode="&#xe99f;" glyph-name="share" d="M768 252.667q52 0 88-37t36-87q0-52-37-89t-87-37-87 37-37 89q0 20 2 28l-302 176q-38-34-88-34-52 0-90 38t-38 90 38 90 90 38q50 0 88-34l300 174q-4 20-4 30 0 52 38 90t90 38 90-38 38-90-38-90-90-38q-48 0-88 36l-300-176q4-20 4-30t-4-30l304-176q36 32 84 32z" />
<glyph unicode="&#xe9a0;" glyph-name="thumb_down_alt" d="M92 464.667l114 262q26 42 74 42h346q42 0 71-29t29-71v-334q0-36-26-62l-274-272-18 20q-24 24-38 52-6 14-4 28l40 198h-236q-34 0-59 26t-25 60v46q0 20 6 34zM938 768.667v-470h-84q-18 0-31 12t-13 30v384q0 18 13 31t31 13h84z" />
<glyph unicode="&#xe9a1;" glyph-name="thumb_up_alt" d="M932 388.667l-114-262q-26-42-74-42h-346q-40 0-70 30t-30 70v334q0 36 26 62l274 272 18-20q24-24 38-52 6-14 4-28l-40-198h236q34 0 59-26t25-60v-46q0-18-6-34zM86 84.667v470h84q18 0 31-12t13-30v-384q0-18-13-31t-31-13h-84z" />
<glyph unicode="&#xe9a2;" glyph-name="check_box" d="M426 212.667l384 384-60 62-324-324-152 152-60-60zM810 810.667q36 0 61-25t25-61v-596q0-36-25-61t-61-25h-596q-36 0-61 25t-25 61v596q0 36 25 61t61 25h596z" />
<glyph unicode="&#xe9a3;" glyph-name="check_box_outline_blank" d="M810 810.667q34 0 60-26t26-60v-596q0-34-26-60t-60-26h-596q-34 0-60 26t-26 60v596q0 34 26 60t60 26h596zM810 724.667h-596v-596h596v596z" />
<glyph unicode="&#xe9a4;" glyph-name="star1" d="M512 202.667l-264-160 70 300-232 202 306 26 120 282 120-282 306-26-232-202 70-300z" />
<glyph unicode="&#xe9a5;" glyph-name="star_half" d="M512 280.667l160-96-42 182 142 124-188 16-72 172v-398zM938 544.667l-232-202 70-300-264 160-264-160 70 300-232 202 306 26 120 282 120-282z" />
<glyph unicode="&#xe9a6;" glyph-name="star_outline" d="M512 280.667l160-96-42 182 142 124-188 16-72 172-72-172-188-16 142-124-42-182zM938 544.667l-232-202 70-300-264 160-264-160 70 300-232 202 306 26 120 282 120-282z" />
<glyph unicode="&#xe9a7;" glyph-name="account_balance" d="M490 896.667l406-214v-86h-810v86zM682 512.667h128v-300h-128v300zM86 0.667v128h810v-128h-810zM426 512.667h128v-300h-128v300zM170 512.667h128v-300h-128v300z" />
<glyph unicode="&#xe9a8;" glyph-name="account_box" d="M256 212.667v-42h512v42q0 58-88 95t-168 37-168-37-88-95zM640 554.667q0 52-38 90t-90 38-90-38-38-90 38-90 90-38 90 38 38 90zM128 724.667q0 36 25 61t61 25h596q34 0 60-26t26-60v-596q0-34-26-60t-60-26h-596q-36 0-61 25t-25 61v596z" />
<glyph unicode="&#xe9a9;" glyph-name="account_circle" d="M512 118.667q68 0 143 40t113 98q-2 56-90 94t-166 38-166-37-90-95q38-58 113-98t143-40zM512 724.667q-52 0-90-38t-38-90 38-90 90-38 90 38 38 90-38 90-90 38zM512 852.667q176 0 301-125t125-301-125-301-301-125-301 125-125 301 125 301 301 125z" />
<glyph unicode="&#xe9aa;" glyph-name="assignment" d="M726 554.667v86h-428v-86h428zM726 384.667v84h-428v-84h428zM598 212.667v86h-300v-86h300zM512 810.667q-18 0-30-12t-12-30 12-31 30-13 30 13 12 31-12 30-30 12zM810 810.667q34 0 60-26t26-60v-596q0-34-26-60t-60-26h-596q-34 0-60 26t-26 60v596q0 34 26 60t60 26h178q14 38 46 62t74 24 74-24 46-62h178z" />
<glyph unicode="&#xe9ab;" glyph-name="assignment_ind" d="M768 128.667v60q0 58-88 95t-168 37-168-37-88-95v-60h512zM512 640.667q-52 0-90-38t-38-90 38-90 90-38 90 38 38 90-38 90-90 38zM512 810.667q-18 0-30-12t-12-30 12-31 30-13 30 13 12 31-12 30-30 12zM810 810.667q34 0 60-26t26-60v-596q0-34-26-60t-60-26h-596q-34 0-60 26t-26 60v596q0 34 26 60t60 26h178q14 38 46 62t74 24 74-24 46-62h178z" />
<glyph unicode="&#xe9ac;" glyph-name="assignment_late" d="M512 724.667q18 0 30 13t12 31-12 30-30 12-30-12-12-30 12-31 30-13zM554 340.667v256h-84v-256h84zM554 170.667v86h-84v-86h84zM810 810.667q34 0 60-26t26-60v-596q0-34-26-60t-60-26h-596q-34 0-60 26t-26 60v596q0 34 26 60t60 26h178q14 38 46 62t74 24 74-24 46-62h178z" />
<glyph unicode="&#xe9ad;" glyph-name="assignment_return" d="M682 298.667v170h-170v128l-214-212 214-214v128h170zM512 810.667q-18 0-30-12t-12-30 12-31 30-13 30 13 12 31-12 30-30 12zM810 810.667q34 0 60-26t26-60v-596q0-34-26-60t-60-26h-596q-34 0-60 26t-26 60v596q0 34 26 60t60 26h178q14 38 46 62t74 24 74-24 46-62h178z" />
<glyph unicode="&#xe9ae;" glyph-name="assignment_returned" d="M512 170.667l214 214h-128v170h-172v-170h-128zM512 810.667q-18 0-30-12t-12-30 12-31 30-13 30 13 12 31-12 30-30 12zM810 810.667q34 0 60-26t26-60v-596q0-34-26-60t-60-26h-596q-34 0-60 26t-26 60v596q0 34 26 60t60 26h178q14 38 46 62t74 24 74-24 46-62h178z" />
<glyph unicode="&#xe9af;" glyph-name="assignment_turned_in" d="M426 212.667l342 342-60 60-282-280-110 110-60-60zM512 810.667q-18 0-30-12t-12-30 12-31 30-13 30 13 12 31-12 30-30 12zM810 810.667q34 0 60-26t26-60v-596q0-34-26-60t-60-26h-596q-34 0-60 26t-26 60v596q0 34 26 60t60 26h178q14 38 46 62t74 24 74-24 46-62h178z" />
<glyph unicode="&#xe9b0;" glyph-name="autorenew" d="M800 608.667q54-82 54-182 0-140-101-241t-241-101v-128l-170 172 170 170v-128q106 0 181 75t75 181q0 60-30 120zM512 682.667q-106 0-181-75t-75-181q0-64 30-120l-62-62q-54 82-54 182 0 140 101 241t241 101v128l170-172-170-170v128z" />
<glyph unicode="&#xe9b1;" glyph-name="bookmark1" d="M726 810.667q34 0 59-26t25-60v-682l-298 128-298-128v682q0 34 25 60t59 26h428z" />
<glyph unicode="&#xe9b2;" glyph-name="bookmark_outline" d="M726 170.667v554h-428v-554l214 94zM726 810.667q34 0 59-26t25-60v-682l-298 128-298-128v682q0 34 25 60t59 26h428z" />
<glyph unicode="&#xe9b3;" glyph-name="build" d="M968 128.667q14-8 13-27t-17-33l-98-98q-30-30-60 0l-388 388q-72-30-153-13t-141 77q-64 64-80 152t24 164l188-184 128 128-184 184q76 36 164 22t152-78q60-60 77-141t-13-153z" />
<glyph unicode="&#xe9b4;" glyph-name="cached" d="M256 426.667h128l-170-170-172 170h128q0 140 101 241t241 101q100 0 182-54l-62-62q-54 30-120 30-106 0-181-75t-75-181zM810 596.667l172-170h-128q0-140-101-241t-241-101q-100 0-182 54l62 62q56-30 120-30 106 0 181 75t75 181h-128z" />
<glyph unicode="&#xe9b5;" glyph-name="change_history" d="M512 768.667l426-684h-852zM512 606.667l-272-436h544z" />
<glyph unicode="&#xe9b6;" glyph-name="check_circle" d="M426 212.667l384 384-60 62-324-324-152 152-60-60zM512 852.667q176 0 301-125t125-301-125-301-301-125-301 125-125 301 125 301 301 125z" />
<glyph unicode="&#xe9b7;" glyph-name="delete" d="M810 768.667v-86h-596v86h148l44 42h212l44-42h148zM256 128.667v512h512v-512q0-34-26-60t-60-26h-340q-34 0-60 26t-26 60z" />
<glyph unicode="&#xe9b8;" glyph-name="done" d="M384 246.667l452 454 60-60-512-512-238 238 58 60z" />
<glyph unicode="&#xe9b9;" glyph-name="done_all" d="M18 366.667l60 60 238-238-60-60zM948 700.667l62-60-512-512-240 238 62 60 178-178zM768 640.667l-270-272-60 60 270 272z" />
<glyph unicode="&#xe9ba;" glyph-name="extension" d="M874 468.667q44 0 76-31t32-75-32-75-76-31h-64v-172q0-34-25-59t-59-25h-162v64q0 48-34 81t-82 33-82-33-34-81v-64h-162q-34 0-59 25t-25 59v162h64q48 0 81 34t33 82-33 82-81 34h-64v162q0 34 25 59t59 25h172v64q0 44 31 76t75 32 75-32 31-76v-64h172q34 0 59-25t25-59v-172h64z" />
<glyph unicode="&#xe9bb;" glyph-name="face" d="M512 84.667q140 0 241 101t101 241q0 44-14 96-44-10-98-10-92 0-193 53t-153 127q-66-160-224-230-2-12-2-36 0-140 101-241t241-101zM512 852.667q176 0 301-125t125-301-125-301-301-125-301 125-125 301 125 301 301 125zM640 436.667q22 0 38-15t16-37-16-38-38-16-38 16-16 38 16 37 38 15zM384 436.667q22 0 38-15t16-37-16-38-38-16-38 16-16 38 16 37 38 15z" />
<glyph unicode="&#xe9bc;" glyph-name="favorite" d="M512 28.667l-62 56q-106 96-154 142t-107 114-81 123-22 113q0 98 67 166t167 68q116 0 192-90 76 90 192 90 100 0 167-68t67-166q0-78-52-162t-113-146-199-186z" />
<glyph unicode="&#xe9bd;" glyph-name="favorite_outline" d="M516 146.667q96 86 142 130t100 104 75 106 21 90q0 64-43 106t-107 42q-50 0-93-28t-59-72h-80q-16 44-59 72t-93 28q-64 0-107-42t-43-106q0-44 21-90t75-106 100-104 142-130l4-4zM704 810.667q100 0 167-68t67-166q0-58-22-113t-81-123-107-114-154-142l-62-56-62 54q-138 124-199 186t-113 146-52 162q0 98 67 166t167 68q116 0 192-90 76 90 192 90z" />
<glyph unicode="&#xe9be;" glyph-name="home4" d="M426 84.667h-212v342h-128l426 384 426-384h-128v-342h-212v256h-172v-256z" />
<glyph unicode="&#xe9bf;" glyph-name="label" d="M752 688.667l186-262-186-262q-26-36-70-36h-468q-34 0-60 25t-26 59v428q0 34 26 59t60 25h468q44 0 70-36z" />
<glyph unicode="&#xe9c0;" glyph-name="label_outline" d="M682 212.667l152 214-152 214h-468v-428h468zM752 688.667l186-262-186-262q-26-36-70-36h-468q-34 0-60 25t-26 59v428q0 34 26 59t60 25h468q44 0 70-36z" />
<glyph unicode="&#xe9c1;" glyph-name="open_with" d="M598 298.667v-128h128l-214-214-214 214h128v128h172zM982 426.667l-214-214v128h-128v172h128v128zM384 512.667v-172h-128v-128l-214 214 214 214v-128h128zM426 554.667v128h-128l214 214 214-214h-128v-128h-172z" />
<glyph unicode="&#xe9c2;" glyph-name="power_settings_new" d="M760 718.667q136-116 136-292 0-160-112-272t-272-112-272 112-112 272q0 72 40 158t96 134l60-60q-46-38-78-106t-32-126q0-124 87-211t211-87 211 87 87 211q0 58-32 126t-78 104zM554 810.667v-426h-84v426h84z" />
<glyph unicode="&#xe9c3;" glyph-name="search2" d="M406 340.667q80 0 136 56t56 136-56 136-136 56-136-56-56-136 56-136 136-56zM662 340.667l212-212-64-64-212 212v34l-12 12q-76-66-180-66-116 0-197 80t-81 196 81 197 197 81 196-81 80-197q0-42-20-95t-46-85l12-12h34z" />
<glyph unicode="&#xe9c4;" glyph-name="settings" d="M512 276.667q62 0 106 44t44 106-44 106-106 44-106-44-44-106 44-106 106-44zM830 384.667l90-70q14-10 4-28l-86-148q-8-14-26-8l-106 42q-42-30-72-42l-16-112q-4-18-20-18h-172q-16 0-20 18l-16 112q-38 16-72 42l-106-42q-18-6-26 8l-86 148q-10 18 4 28l90 70q-2 14-2 42t2 42l-90 70q-14 10-4 28l86 148q8 14 26 8l106-42q42 30 72 42l16 112q4 18 20 18h172q16 0 20-18l16-112q38-16 72-42l106 42q18 6 26-8l86-148q10-18-4-28l-90-70q2-14 2-42t-2-42z" />
<glyph unicode="&#xe9c5;" glyph-name="settings_applications" d="M736 426.667q0 20-2 30l64 48q10 8 2 20l-60 104q-6 10-18 6l-74-30q-26 20-50 30l-12 78q-4 12-14 12h-120q-12 0-14-12l-12-80q-32-14-50-28l-74 30q-10 4-18-8l-60-102q-2-2-2-8 0-10 4-12l64-48q-2-10-2-30t2-30l-64-48q-4-2-4-12 0-6 2-8l60-104q6-10 18-6l74 30q26-20 50-30l12-78q4-12 14-12h120q12 0 14 12l12 80q32 14 50 28l74-30q10-4 18 8l60 102q8 12-2 20l-64 48q2 10 2 30zM810 810.667q36 0 61-25t25-61v-596q0-36-25-61t-61-25h-596q-36 0-61 25t-25 61v596q0 36 25 61t61 25h596zM512 512.667q34 0 60-26t26-60-26-60-60-26-60 26-26 60 26 60 60 26z" />
<glyph unicode="&#xe9c6;" glyph-name="settings_ethernet" d="M758 704.667l232-278-232-278-66 54 186 224-186 224zM470 384.667v84h84v-84h-84zM726 468.667v-84h-86v84h86zM298 384.667v84h86v-84h-86zM332 650.667l-186-224 186-224-66-54-232 278 232 278z" />
<glyph unicode="&#xe9c7;" glyph-name="work" d="M598 682.667v86h-172v-86h172zM854 682.667q36 0 60-25t24-61v-468q0-36-24-61t-60-25h-684q-36 0-60 25t-24 61v468q0 36 24 61t60 25h172v86q0 36 24 60t60 24h172q36 0 60-24t24-60v-86h172z" />
<glyph unicode="&#xe9c8;" glyph-name="reorder" d="M128 724.667h768v-84h-768v84zM128 468.667v86h768v-86h-768zM128 128.667v84h768v-84h-768zM128 298.667v86h768v-86h-768z" />
<glyph unicode="&#xe9c9;" glyph-name="zoom_in" d="M512 512.667h-86v-86h-42v86h-86v42h86v86h42v-86h86v-42zM406 340.667q80 0 136 56t56 136-56 136-136 56-136-56-56-136 56-136 136-56zM662 340.667l212-212-64-64-212 212v34l-12 12q-76-66-180-66-116 0-197 80t-81 196 81 197 197 81 196-81 80-197q0-42-20-95t-46-85l12-12h34z" />
<glyph unicode="&#xe9ca;" glyph-name="zoom_out" d="M298 554.667h214v-42h-214v42zM406 340.667q80 0 136 56t56 136-56 136-136 56-136-56-56-136 56-136 136-56zM662 340.667l212-212-64-64-212 212v34l-12 12q-76-66-180-66-116 0-197 80t-81 196 81 197 197 81 196-81 80-197q0-42-20-95t-46-85l12-12h34z" />
<glyph unicode="&#xe9cb;" glyph-name="circle_notifications" d="M726 256.667v42l-44 42v112q0 70-33 122t-95 66v20q0 18-12 31t-30 13-30-13-12-31v-20q-62-14-95-66t-33-122v-112l-44-42v-42h428zM512 148.667q28 0 46 19t18 45h-128q0-26 18-45t46-19zM512 852.667q176 0 301-125t125-301-125-301-301-125-301 125-125 301 125 301 301 125z" />
<glyph unicode="&#xe9cc;" glyph-name="closed_caption_off" d="M768 468.667h-64v22h-86v-128h86v22h64v-44q0-18-12-30t-30-12h-128q-18 0-31 12t-13 30v172q0 18 13 30t31 12h128q18 0 30-12t12-30v-44zM470 468.667h-64v22h-86v-128h86v22h64v-44q0-18-13-30t-31-12h-128q-18 0-30 12t-12 30v172q0 18 12 30t30 12h128q18 0 31-12t13-30v-44zM810 768.667q34 0 60-26t26-60v-512q0-34-26-60t-60-26h-596q-36 0-61 25t-25 61v512q0 36 25 61t61 25h596zM832 704.667h-640v-556h640v556z" />
<glyph unicode="&#xe9cd;" glyph-name="drive_file_move_outline" d="M512 554.667l170-172-170-170-62 60 68 68h-176v86h176l-66 68zM854 170.667v426h-684v-426h684zM854 682.667q34 0 59-26t25-60v-426q0-34-25-60t-59-26h-684q-34 0-59 26t-25 60v512q0 34 25 60t59 26h256l86-86h342z" />
<glyph unicode="&#xe9ce;" glyph-name="drive_folder_upload" d="M342 382.667l170 172 170-172-60-60-68 68v-178h-84v178l-68-68zM854 170.667v426h-684v-426h684zM854 682.667q34 0 59-26t25-60v-426q0-34-25-60t-59-26h-684q-34 0-59 26t-25 60v512q0 34 25 60t59 26h256l86-86h342z" />
<glyph unicode="&#xe9cf;" glyph-name="library_add_check" d="M170 682.667v-598h598v-84h-598q-34 0-59 25t-25 59v598h84zM532 340.667l278 282-60 60-218-220-88 88-60-60zM854 852.667q34 0 59-25t25-59v-512q0-34-25-60t-59-26h-512q-34 0-60 26t-26 60v512q0 34 26 59t60 25h512z" />
<glyph unicode="&#xe9d0;" glyph-name="logout" d="M170 724.667v-596h342v-86h-342q-34 0-59 26t-25 60v596q0 34 25 60t59 26h342v-86h-342zM726 640.667l212-214-212-214-60 62 110 110h-434v84h434l-110 112z" />
<glyph unicode="&#xe9d1;" glyph-name="mark_as_unread" d="M854 440.667v72l-278-142-278 142v-72l278-142zM854 596.667q34 0 59-25t25-59v-384q0-34-25-60t-59-26h-556q-34 0-59 26t-25 60v384q0 34 25 59t59 25h556zM804 640.667h-112l-244 128-278-146v-410q-34 0-59 26t-25 60v334q0 42 34 58l328 162 322-162q30-18 34-50z" />
<glyph unicode="&#xe9d2;" glyph-name="switch_account" d="M854 256.667v64q0 56-88 92t-168 36-168-36-88-92v-64h512zM598 768.667q-52 0-90-38t-38-90 38-90 90-38 90 38 38 90-38 90-90 38zM854 852.667q34 0 59-25t25-59v-512q0-34-25-60t-59-26h-512q-34 0-60 26t-26 60v512q0 34 26 59t60 25h512zM170 682.667v-598h598v-84h-598q-34 0-59 25t-25 59v598h84z" />
<glyph unicode="&#xe9d3;" glyph-name="thumb_down_off_alt" d="M854 298.667q-18 0-31 12t-13 30v384q0 18 13 31t31 13h84v-470h-84zM426 0.667l-18 20q-24 24-38 52-6 14-4 28l40 198h-236q-34 0-59 26t-25 60v46q0 20 6 34l114 262q26 42 74 42h346q42 0 71-29t29-71v-334q0-36-26-62zM464 158.667l176 174v336q0 14-14 14h-346l-110-252v-46h236q38 0 65-31t17-71z" />
<glyph unicode="&#xe9d4;" glyph-name="thumb_up_off_alt" d="M170 554.667q18 0 31-12t13-30v-384q0-18-13-31t-31-13h-84v470h84zM598 852.667l18-20q24-24 38-52 6-14 4-28l-40-198h236q34 0 59-26t25-60v-46q0-18-6-34l-114-262q-26-42-74-42h-346q-42 0-71 29t-29 71v334q0 36 26 62zM560 694.667l-176-174v-336q0-14 14-14h346l110 252v46h-236q-38 0-65 31t-17 71z" />
<glyph unicode="&#xe9d5;" glyph-name="toggle_off" d="M298 298.667q52 0 90 38t38 90-38 90-90 38-90-38-38-90 38-90 90-38zM726 640.667q88 0 150-63t62-151-62-151-150-63h-428q-88 0-150 63t-62 151 62 151 150 63h428z" />
<glyph unicode="&#xe9d6;" glyph-name="toggle_on" d="M726 298.667q52 0 90 38t38 90-38 90-90 38-90-38-38-90 38-90 90-38zM726 640.667q88 0 150-63t62-151-62-151-150-63h-428q-88 0-150 63t-62 151 62 151 150 63h428z" />
<glyph unicode="&#xe9d7;" glyph-name="upload_file" d="M342 298.667l170 170 170-170-60-62-68 68v-176h-84v176l-68-66zM768 84.667v470h-214v214h-298v-684h512zM598 852.667l256-256v-512q0-34-26-59t-60-25h-512q-34 0-60 25t-26 59l2 684q0 34 25 59t59 25h342z" />
<glyph unicode="&#xe9d8;" glyph-name="bolt1" d="M470 42.667h-44l44 298h-150q-32 0-16 28 6 10 2 6 102 178 248 436h44l-44-298h150q28 0 18-28z" />
<glyph unicode="&#xe9d9;" glyph-name="workspaces_filled" d="M768 384.667q70 0 120-51t50-121-50-120-120-50-120 50-50 120 50 121 120 51zM512 810.667q70 0 120-50t50-120-50-121-120-51-120 51-50 121 50 120 120 50zM256 384.667q70 0 120-51t50-121-50-120-120-50-120 50-50 120 50 121 120 51z" />
<glyph unicode="&#xe9da;" glyph-name="file_present" d="M682 512.667v-214q0-70-50-120t-120-50-120 50-50 120v278q0 44 31 75t75 31h12q42-4 68-37t26-75v-272h-84v278q0 20-22 20t-22-20v-278q0-34 26-60t60-26 60 26 26 60v214h84zM256 84.667h512v512h-170v172h-342v-684zM640 852.667l214-212v-556q0-34-26-59t-60-25h-512q-34 0-60 25t-26 59v684q0 34 26 59t60 25h384z" />
<glyph unicode="&#xe9db;" glyph-name="workspaces_outline" d="M768 384.667q70 0 120-51t50-121-50-120-120-50-120 50-50 120 50 121 120 51zM768 298.667q-34 0-60-26t-26-60 26-59 60-25 60 25 26 59-26 60-60 26zM512 810.667q70 0 120-50t50-120-50-121-120-51-120 51-50 121 50 120 120 50zM512 724.667q-34 0-60-25t-26-59 26-60 60-26 60 26 26 60-26 59-60 25zM256 384.667q70 0 120-51t50-121-50-120-120-50-120 50-50 120 50 121 120 51zM256 298.667q-34 0-60-26t-26-60 26-59 60-25 60 25 26 59-26 60-60 26z" />
<glyph unicode="&#xe9dc;" glyph-name="height" d="M554 640.667v-428h128l-170-170-170 170h128v428h-128l170 170 170-170h-128z" />
<glyph unicode="&#xe9dd;" glyph-name="sync_alt" d="M86 256.667l170 170v-128h640v-86h-640v-128zM938 596.667l-170-170v128h-640v86h640v128z" />
<glyph unicode="&#xe9de;" glyph-name="post_add" d="M298 298.667h342v-86h-342v86zM298 426.667h342v-86h-342v86zM298 554.667h342v-86h-342v86zM810 852.667v-128h128v-84h-128v-128h-84v128h-128v84h128v128h84zM726 118.667v308h84v-298q0-34-25-60t-59-26h-512q-34 0-60 26t-26 60v512q0 34 26 59t60 25h298v-84h-298v-522h512z" />
<glyph unicode="&#xe9df;" glyph-name="emoji_emotions" d="M662 468.667q26 0 45 19t19 45-19 45-45 19-45-19-19-45 19-45 45-19zM512 170.667q72 0 130 47t84 123h-428q26-76 84-123t130-47zM362 596.667q-26 0-45-19t-19-45 19-45 45-19 45 19 19 45-19 45-45 19zM512 852.667q176 0 301-125t125-301-125-301-301-125-301 125-125 301 125 301 301 125z" />
<glyph unicode="&#xe9e0;" glyph-name="emoji_objects" d="M534 452.667l78 76-30 32-70-70-70 70-30-32 78-76v-112h44v112zM598 212.667v44h-172v-44h172zM598 128.667v42h-172v-42h172zM512 810.667q124 0 211-87t87-211v-2q0-56-29-121t-71-101q-28-24-28-62v-98q0-34-25-60t-59-26h-12q-24-42-74-42t-74 42h-12q-34 0-59 26t-25 60v98q0 38-28 62-126 112-96 280 16 88 81 154t153 82q30 6 60 6z" />
<glyph unicode="&#xe9e1;" glyph-name="sports_basketball" d="M382 384.667h88v-382q-62 6-139 43t-123 83q62 34 113 110t61 146zM730 384.667h206q-10-100-66-188-50 24-90 79t-50 109zM154 196.667q-58 90-66 188h206q-10-54-50-109t-90-79zM642 384.667q10-70 61-146t113-110q-44-46-121-83t-141-43v382h88zM382 468.667q-10 70-61 146t-113 110q44 46 121 83t141 43v-382h-88zM642 468.667h-88v382q62-6 139-43t123-83q-62-34-113-110t-61-146zM294 468.667h-206q10 100 66 188 50-24 90-79t50-109zM730 468.667q10 54 50 109t90 79q56-88 66-188h-206z" />
<glyph unicode="&#xe9e2;" glyph-name="eco" d="M258 594.667q66 66 215 109t265 55l116 10q-2-50-11-129t-53-240-110-227q-68-68-162-83t-176 25q18 100 86 217t144 181q-218-112-314-340-36 36-62 99t-26 113 26 112 62 98z" />
<glyph unicode="&#xe9e3;" glyph-name="anchor" d="M726 298.667l66-66q-22-36-59-66t-84-50-95-28v380h128v86h-128v50q38 14 62 47t24 73q0 36-17 65t-46 46-65 17-65-17-46-46-17-65q0-40 24-73t62-47v-50h-128v-86h128v-380q-48 8-95 28t-84 50-59 66l66 66-170 128v-128q0-62 35-116t92-95 124-64 133-23 133 23 124 64 92 95 35 116v128zM512 768.667q18 0 30-13t12-31q0-16-12-29t-30-13-30 13-12 29q0 18 12 31t30 13z" />
<glyph unicode="&#xe9e4;" glyph-name="api" d="M598 426.667l-86-86-86 86 86 86zM512 682.667l90-90 108 106-198 198-198-198 108-106zM256 426.667l90 90-106 108-198-198 198-198 106 108zM768 426.667l-90-90 106-108 198 198-198 198-106-108zM512 170.667l-90 90-108-106 198-198 198 198-108 106z" />
<glyph unicode="&#xe9e5;" glyph-name="arrow_circle_down" d="M512 768.667q70 0 132-27t109-74 74-109 27-132-27-132-74-109-109-74-132-27-132 27-109 74-74 109-27 132 27 132 74 109 109 74 132 27zM512 852.667q-88 0-165-33t-136-92-92-136-33-165 33-165 92-136 136-92 165-33 165 33 136 92 92 136 33 165-33 165-92 136-136 92-165 33v0zM554 426.667v170h-84v-170h-128l170-170 170 170h-128z" />
<glyph unicode="&#xe9e6;" glyph-name="arrow_circle_up" d="M512 84.667q-70 0-132 27t-109 74-74 109-27 132 27 132 74 109 109 74 132 27 132-27 109-74 74-109 27-132-27-132-74-109-109-74-132-27zM512 0.667q88 0 165 33t136 92 92 136 33 165-33 165-92 136-136 92-165 33-165-33-136-92-92-136-33-165 33-165 92-136 136-92 165-33v0zM470 426.667v-170h84v170h128l-170 170-170-170h128z" />
<glyph unicode="&#xe9e7;" glyph-name="article" d="M810 810.667h-596q-36 0-61-25t-25-61v-596q0-36 25-61t61-25h596q36 0 61 25t25 61v596q0 36-25 61t-61 25zM598 212.667h-300v86h300v-86zM726 384.667h-428v84h428v-84zM726 554.667h-428v86h428v-86z" />
<glyph unicode="&#xe9e8;" glyph-name="attach_email" d="M896 512.667v256q0 34-25 59t-61 25h-682q-36 0-60-25t-24-59l-2-512q0-36 25-61t61-25h470v214q0 34 17 63t46 47 65 18h170zM470 468.667l-342 214v86l342-214 340 214v-86zM896 340.667v-170q0-36-25-61t-61-25q-34 0-59 25t-25 61v192q0 8 6 15t14 7q10 0 16-7t6-15v-192h86v192q0 44-32 75t-76 31-75-31-31-75v-192q0-48 23-86t62-61 85-23q48 0 87 23t62 61 23 86v170h-86z" />
<glyph unicode="&#xe9e9;" glyph-name="auto_awesome_motion" d="M598 852.667h-428q-34 0-59-25t-25-59v-428h84v428h428v84zM768 682.667h-426q-36 0-61-25t-25-61v-426h86v426h426v86zM854 512.667h-342q-36 0-61-25t-25-61v-342q0-34 25-59t61-25h342q34 0 59 25t25 59v342q0 36-25 61t-59 25z" />
<glyph unicode="&#xe9ea;" glyph-name="bedtime" d="M526 852.667q-92 4-172-29t-140-92-94-137-34-168q0-88 33-165t92-136 136-92 165-33q80 0 150 27t126 75 94 112q-96 2-175 42t-135 106-83 148-19 170 56 172z" />
<glyph unicode="&#xe9eb;" glyph-name="block_flipped" d="M938 426.667q0 88-33 165t-92 136-136 92-165 33-165-33-136-92-92-136-33-165 33-165 92-136 136-92 165-33 165 33 136 92 92 136 33 165zM244 636.667l478-478q-86-74-210-74-70 0-132 27t-109 74-74 109-27 132q0 124 74 210zM854 426.667q0-124-74-210l-478 478q86 74 210 74 70 0 132-27t109-74 74-109 27-132z" />
<glyph unicode="&#xe9ec;" glyph-name="build_circle" d="M512 852.667q-88 0-165-33t-136-92-92-136-33-165 33-165 92-136 136-92 165-33 165 33 136 92 92 136 33 165-33 165-92 136-136 92-165 33zM722 278.667l-60-60q-8-8-16-8t-14 8l-146 144q-40-12-82-4t-72 40q-36 34-42 83t16 91l100-100 60 60-100 100q42 22 91 16t85-42q30-30 39-72t-5-82l146-146q6-6 6-14t-6-14z" />
<glyph unicode="&#xe9ed;" glyph-name="calculate" d="M810 810.667h-596q-36 0-61-25t-25-61v-596q0-36 25-61t61-25h596q36 0 61 25t25 61v596q0 36-25 61t-61 25zM556 636.667l46 46 60-60 60 60 44-46-60-60 60-60-44-44-60 58-60-60-46 46 60 60zM266 608.667h214v-64h-214v64zM490 256.667h-84v-86h-64v86h-86v64h86v84h64v-84h84v-64zM768 202.667h-214v64h214v-64zM768 308.667h-214v64h214v-64z" />
<glyph unicode="&#xe9ee;" glyph-name="circle1" d="M512 852.667q-88 0-166-33t-136-91-91-136-33-166 33-166 91-136 136-91 166-33 166 33 136 91 91 136 33 166-33 166-91 136-136 91-166 33z" />
<glyph unicode="&#xe9ef;" glyph-name="close_fullscreen" d="M938 792.667l-226-226 142-140h-342v342l140-142 226 226zM146 0.667l226 226 140-142v342h-342l142-140-226-226z" />
<glyph unicode="&#xe9f0;" glyph-name="construction" d="M588 290.667l90 92 256-256-90-92zM746 512.667q42 0 76 20t54 54 20 74q0 20-5 37t-13 31l-114-114-64 64 114 114q-14 8-31 13t-37 5q-40 0-74-20t-54-54-20-76q0-24 8-48l-78-80-76 76 30 30-60 60 90 92q-24 24-57 32t-66 0-57-32l-152-152 60-60h-120l-30-30 150-152 30 30v122l62-60 30 30 76-76-316-316 90-90 486 484q24-8 48-8z" />
<glyph unicode="&#xe9f1;" glyph-name="domain_verification" d="M708 474.667l-60 60-182-180-90 90-60-60 150-152zM810 768.667h-596q-36 0-61-25t-25-61v-512q0-36 25-61t61-25h596q36 0 61 25t25 61v512q0 36-25 61t-61 25zM810 170.667h-596v426h596v-426z" />
<glyph unicode="&#xe9f2;" glyph-name="drive_file_move" d="M854 682.667h-342l-86 86h-256q-34 0-59-25t-25-61v-512q0-36 25-61t59-25h684q34 0 59 25t25 61v426q0 36-25 61t-59 25zM598 170.667v128h-172v170h172v128l212-212z" />
<glyph unicode="&#xe9f3;" glyph-name="east" d="M640 724.667l-60-60 196-196h-690v-84h690l-196-196 60-60 298 298z" />
<glyph unicode="&#xe9f4;" glyph-name="house_siding" d="M810 426.667h128l-426 384-426-384h128v-342h84v86h428v-86h84v342zM308 512.667h408l10-8v-78h-428v78zM622 596.667h-220l110 100zM298 256.667v84h428v-84h-428z" />
<glyph unicode="&#xe9f5;" glyph-name="location_pin" d="M512 852.667v0q-62 0-116-23t-95-64-64-95-23-116q0-56 15-108t45-98q30-50 67-94t67-94q16-24 27-47t23-49q6-12 12-27t16-26 26-11v0q16 0 26 11t16 26 12 27q12 26 23 49t27 47q30 48 67 93t67 95q30 46 45 98t15 108q0 62-23 116t-64 95-95 64-116 23zM512 436.667q-44 0-75 32t-31 76 31 75 75 31 75-31 31-75-31-76-75-32z" />
<glyph unicode="&#xe9f6;" glyph-name="maps_ugc" d="M512 852.667q-88 0-165-33t-136-92-92-136-33-165q0-50 11-96t29-88l-84-286 286 84q42-18 88-29t96-11q88 0 165 33t136 92 92 136 33 165-33 165-92 136-136 92-165 33zM682 384.667h-128v-128h-84v128h-128v84h128v128h84v-128h128v-84z" />
<glyph unicode="&#xe9f7;" glyph-name="nightlight_round" d="M512 426.667q0 76 29 143t80 117 117 76q20 8 25 25t-4 34-29 21q-34 8-71 10t-77-4q-72-8-135-41t-112-84-80-115-39-136q-10-96 19-181t89-151 141-103 175-37q46 0 90 10 22 4 30 20t3 34-23 26q-70 28-121 79t-79 117-28 140v0z" />
<glyph unicode="&#xe9f8;" glyph-name="north" d="M214 554.667l60-60 196 196v-690h84v690l196-196 60 60-298 298z" />
<glyph unicode="&#xe9f9;" glyph-name="north_east" d="M384 724.667v-84h282l-496-496 60-60 496 496v-282h84v426h-426z" />
<glyph unicode="&#xe9fa;" glyph-name="north_west" d="M214 298.667h84v282l496-496 60 60-496 496h282v84h-426v-426z" />
<glyph unicode="&#xe9fb;" glyph-name="open_in_full" d="M896 468.667v342h-342l142-140-428-428-140 142v-342h342l-142 140 428 428z" />
<glyph unicode="&#xe9fc;" glyph-name="pending" d="M512 852.667q-88 0-165-33t-136-92-92-136-33-165 33-165 92-136 136-92 165-33 165 33 136 92 92 136 33 165-33 165-92 136-136 92-165 33zM298 362.667q-26 0-45 19t-19 45 19 45 45 19q28 0 46-19t18-45-18-45-46-19zM512 362.667q-26 0-45 19t-19 45 19 45 45 19 45-19 19-45-19-45-45-19zM726 362.667q-28 0-46 19t-18 45 18 45 46 19q26 0 45-19t19-45-19-45-45-19z" />
<glyph unicode="&#xe9fd;" glyph-name="science" d="M844 152.667l-246 330v178l56 72q10 12 4 24t-20 12h-252q-14 0-20-12t4-24l56-72v-178l-246-330q-12-14-10-29t14-27 30-12h596q18 0 30 12t14 27-10 29z" />
<glyph unicode="&#xe9fe;" glyph-name="south" d="M810 298.667l-60 60-196-196v690h-84v-690l-196 196-60-60 298-298z" />
<glyph unicode="&#xe9ff;" glyph-name="south_east" d="M810 554.667h-84v-282l-496 496-60-60 496-496h-282v-84h426v426z" />
<glyph unicode="&#xea00;" glyph-name="south_west" d="M640 128.667v84h-282l496 496-60 60-496-496v282h-84v-426h426z" />
<glyph unicode="&#xea01;" glyph-name="star_outline1" d="M938 544.667l-306 26-120 282-120-282-306-26 232-202-70-300 264 160 264-160-70 300zM512 280.667l-160-96 42 182-142 124 188 16 72 172 72-172 188-16-142-124 42-182z" />
<glyph unicode="&#xea02;" glyph-name="star_rate" d="M616 512.667l-104 340-104-340h-322l264-188-102-324 264 200 264-200-100 324 262 188h-322z" />
<glyph unicode="&#xea03;" glyph-name="table_rows" d="M938 640.667h-852v212h852v-212zM938 532.667h-852v-212h852v212zM938 212.667h-852v-212h852v212z" />
<glyph unicode="&#xea04;" glyph-name="text_snippet" d="M870 580.667l-206 206q-24 24-60 24h-390q-36 0-61-25t-25-61v-596q0-36 25-61t61-25h596q36 0 61 25t25 61v390q0 36-26 62zM298 640.667h300v-86h-300v86zM726 212.667h-428v86h428v-86zM726 384.667h-428v84h428v-84z" />
<glyph unicode="&#xea05;" glyph-name="verified" d="M982 426.667l-104 120 14 156-154 36-80 136-146-62-146 62-80-136-154-34 14-158-104-120 104-120-14-156 154-36 80-136 146 62 146-62 80 136 154 36-14 156zM430 224.667l-162 164 64 62 98-100 250 252 64-64z" />
<glyph unicode="&#xea06;" glyph-name="west" d="M384 128.667l60 60-196 196h690v84h-690l196 196-60 60-298-298z" />
<glyph unicode="&#xea07;" glyph-name="disabled_by_default" d="M128 810.667v-768h768v768h-768zM726 272.667l-60-60-154 154-154-154-60 60 154 154-154 154 60 60 154-154 154 154 60-60-154-154z" />
<glyph unicode="&#xea08;" glyph-name="arrow-bold-down" d="M128 460.8h179.2v358.4h409.6v-358.4h179.2l-384-384-384 384z" />
<glyph unicode="&#xea09;" glyph-name="arrow-bold-left" d="M512 844.8v-179.2h358.4v-409.6h-358.4v-179.2l-384 384 384 384z" />
<glyph unicode="&#xea0a;" glyph-name="arrow-bold-right" d="M896 460.8l-384-384v179.2h-358.4v409.6h358.4v179.2l384-384z" />
<glyph unicode="&#xea0b;" glyph-name="arrow-bold-up" d="M512 844.8l384-384h-179.2v-358.4h-409.6v358.4h-179.2l384 384z" />
<glyph unicode="&#xea0c;" glyph-name="arrow-down" d="M512 76.8l-332.8 332.8h179.2v409.6h307.2v-409.6h179.2l-332.8-332.8z" />
<glyph unicode="&#xea0d;" glyph-name="arrow-left" d="M128 460.8l332.8 332.8v-179.2h409.6v-307.2h-409.6v-179.2l-332.8 332.8z" />
<glyph unicode="&#xea0e;" glyph-name="arrow-long-down" d="M512-12.8l-281.6 268.8h179.2v665.6h204.8v-665.6h179.2l-281.6-268.8z" />
<glyph unicode="&#xea0f;" glyph-name="arrow-long-left" d="M38.4 460.8l268.8 281.6v-179.2h665.6v-204.8h-665.6v-179.2l-268.8 281.6z" />
<glyph unicode="&#xea10;" glyph-name="arrow-long-right" d="M716.8 179.2v179.2h-665.6v204.8h665.6v179.2l268.8-281.6-268.8-281.6z" />
<glyph unicode="&#xea11;" glyph-name="arrow-long-up" d="M512 934.4l281.6-268.8h-179.2v-665.6h-204.8v665.6h-179.2l281.6 268.8z" />
<glyph unicode="&#xea12;" glyph-name="arrow-right" d="M563.2 128v179.2h-409.6v307.2h409.6v179.2l332.8-332.8-332.8-332.8z" />
<glyph unicode="&#xea13;" glyph-name="arrow-up" d="M512 844.8l332.8-332.8h-179.2v-409.6h-307.2v409.6h-179.2l332.8 332.8z" />
<glyph unicode="&#xea14;" glyph-name="arrow-with-circle-down" d="M512 952.32c-271.514 0-491.571-220.058-491.571-491.52 0-271.514 220.058-491.571 491.571-491.571 271.411 0 491.52 220.058 491.52 491.571 0 271.462-220.109 491.52-491.52 491.52zM511.949 71.68c-214.886 0-389.12 174.182-389.12 389.12s174.182 389.12 389.12 389.12 389.171-174.234 389.171-389.12-174.285-389.12-389.171-389.12zM614.4 665.6h-204.8v-204.8h-128l230.4-230.4 230.4 230.4h-128v204.8z" />
<glyph unicode="&#xea15;" glyph-name="arrow-with-circle-left" d="M512 952.32c-271.514 0-491.571-220.058-491.571-491.52 0-271.514 220.058-491.571 491.571-491.571 271.411 0 491.52 220.058 491.52 491.571 0 271.462-220.109 491.52-491.52 491.52zM511.949 71.68c-214.886 0-389.12 174.182-389.12 389.12s174.182 389.12 389.12 389.12 389.171-174.234 389.171-389.12-174.285-389.12-389.171-389.12zM512 691.2l-230.4-230.4 230.4-230.4v128h204.8v204.8h-204.8v128z" />
<glyph unicode="&#xea16;" glyph-name="arrow-with-circle-right" d="M512 952.32c-271.514 0-491.571-220.058-491.571-491.52 0-271.514 220.058-491.571 491.571-491.571 271.411 0 491.52 220.058 491.52 491.571 0 271.462-220.109 491.52-491.52 491.52zM511.949 71.68c-214.886 0-389.12 174.182-389.12 389.12s174.182 389.12 389.12 389.12 389.171-174.234 389.171-389.12-174.285-389.12-389.171-389.12zM512 563.2h-204.8v-204.8h204.8v-128l230.4 230.4-230.4 230.4v-128z" />
<glyph unicode="&#xea17;" glyph-name="arrow-with-circle-up" d="M512 952.32c-271.514 0-491.571-220.058-491.571-491.52 0-271.514 220.058-491.571 491.571-491.571 271.411 0 491.52 220.058 491.52 491.571 0 271.462-220.109 491.52-491.52 491.52zM511.949 71.68c-214.886 0-389.12 174.182-389.12 389.12s174.182 389.12 389.12 389.12 389.171-174.234 389.171-389.12-174.285-389.12-389.171-389.12zM512 691.2l230.4-230.4h-128v-204.8h-204.8v204.8h-128l230.4 230.4z" />
<glyph unicode="&#xea18;" glyph-name="bookmark2" d="M716.8 870.4v-870.4l-204.8 204.8-204.8-204.8v870.4c0 28.314 29.952 52.224 51.2 51.2h307.2c35.277 1.024 51.2-22.886 51.2-51.2z" />
<glyph unicode="&#xea19;" glyph-name="bookmarks" d="M768 972.8h-204.8c-28.314 0-51.2-22.886-51.2-51.2l1.178-11.366c56.422 0 102.4-45.926 102.4-102.4v-581.581l50.022 60.467 153.6-184.32v819.2c0 28.314-22.886 51.2-51.2 51.2zM461.978 819.2h-205.978c-28.314 0-51.2-22.886-51.2-51.2v-819.2l153.6 184.32 153.6-184.32v819.2c0 28.314-21.709 51.2-50.022 51.2z" />
<glyph unicode="&#xea1a;" glyph-name="chevron-down" d="M231.219 586.342c22.323 22.835 53.402 24.627 80.691 0l200.090-191.846 200.090 191.846c27.29 24.627 58.419 22.835 80.589 0 22.323-22.784 20.89-61.286 0-82.688-20.787-21.402-240.384-230.502-240.384-230.502-11.11-11.418-25.702-17.152-40.294-17.152s-29.184 5.734-40.397 17.152c0 0-219.494 209.101-240.384 230.502-20.941 21.402-22.323 59.904 0 82.688z" />
<glyph unicode="&#xea1b;" glyph-name="chevron-left" d="M637.542 741.581c22.835-22.323 24.627-53.402 0-80.691l-191.846-200.090 191.846-200.090c24.627-27.29 22.835-58.419 0-80.589-22.784-22.323-61.286-20.89-82.688 0-21.402 20.787-230.502 240.384-230.502 240.384-11.418 11.11-17.152 25.702-17.152 40.294s5.734 29.184 17.152 40.397c0 0 209.101 219.494 230.502 240.384 21.402 20.941 59.904 22.323 82.688 0z" />
<glyph unicode="&#xea1c;" glyph-name="chevron-right" d="M469.146 741.581c21.402-20.89 230.502-240.384 230.502-240.384 11.418-11.213 17.152-25.805 17.152-40.397s-5.734-29.184-17.152-40.294c0 0-209.101-219.597-230.502-240.384-21.402-20.89-59.904-22.323-82.688 0-22.835 22.221-24.627 53.299 0 80.589l191.846 200.090-191.846 200.090c-24.627 27.29-22.835 58.419 0 80.691 22.784 22.323 61.286 20.941 82.688 0z" />
<glyph unicode="&#xea1d;" glyph-name="chevron-small-down" d="M687.002 570.419c13.875 13.722 36.301 13.722 50.074 0 13.824-13.722 13.926-35.891 0-49.613l-200.090-196.096c-13.824-13.722-36.198-13.722-50.125 0l-200.090 196.096c-13.824 13.67-13.824 35.891 0 49.613 13.875 13.722 36.301 13.722 50.074 0l175.155-160.819 175.002 160.819z" />
<glyph unicode="&#xea1e;" glyph-name="chevron-small-left" d="M621.619 285.798c13.722-13.875 13.722-36.301 0-50.074-13.722-13.824-35.891-13.926-49.613 0l-196.096 200.090c-13.722 13.824-13.722 36.198 0 50.125l196.096 200.090c13.67 13.824 35.891 13.824 49.613 0 13.722-13.875 13.722-36.301 0-50.074l-160.819-175.155 160.819-175.002z" />
<glyph unicode="&#xea1f;" glyph-name="chevron-small-right" d="M563.2 460.8l-160.819 175.104c-13.722 13.824-13.722 36.198 0 50.074 13.722 13.824 35.891 13.824 49.613 0l196.096-200.090c13.722-13.875 13.722-36.301 0-50.125l-196.096-200.090c-13.67-13.926-35.891-13.824-49.613 0-13.722 13.773-13.722 36.198 0 50.074l160.819 175.053z" />
<glyph unicode="&#xea20;" glyph-name="chevron-small-up" d="M336.998 351.181c-13.875-13.722-36.301-13.722-50.074 0s-13.926 35.891 0 49.613l200.090 196.096c13.824 13.722 36.198 13.722 50.125 0l200.090-196.096c13.824-13.67 13.824-35.891 0-49.613-13.875-13.722-36.301-13.722-50.125 0l-175.104 160.819-175.002-160.819z" />
<glyph unicode="&#xea21;" glyph-name="chevron-thin-down" d="M891.802 660.019c13.926 13.722 36.301 13.722 50.125 0s13.875-35.891 0-49.613l-404.89-400.896c-13.824-13.722-36.198-13.722-50.125 0l-404.89 400.896c-13.824 13.722-13.824 35.891 0 49.613 13.875 13.722 36.301 13.722 50.125 0l379.853-365.619 379.802 365.619z" />
<glyph unicode="&#xea22;" glyph-name="chevron-thin-left" d="M711.219 80.998c13.722-13.926 13.722-36.301 0-50.125s-35.891-13.875-49.613 0l-400.896 404.89c-13.722 13.824-13.722 36.198 0 50.125l400.896 404.89c13.722 13.824 35.891 13.824 49.613 0 13.722-13.875 13.722-36.301 0-50.125l-365.619-379.853 365.619-379.802z" />
<glyph unicode="&#xea23;" glyph-name="chevron-thin-right" d="M678.4 460.8l-365.619 379.904c-13.722 13.824-13.722 36.198 0 50.125 13.722 13.824 35.891 13.824 49.613 0l400.896-404.89c13.722-13.875 13.722-36.301 0-50.125l-400.896-404.89c-13.722-13.875-35.891-13.824-49.613 0-13.722 13.773-13.722 36.198 0 50.125l365.619 379.75z" />
<glyph unicode="&#xea24;" glyph-name="chevron-thin-up" d="M132.198 261.581c-13.926-13.722-36.301-13.722-50.125 0s-13.875 35.891 0 49.613l404.89 400.896c13.824 13.722 36.198 13.722 50.125 0l404.89-400.896c13.824-13.722 13.824-35.891 0-49.613-13.875-13.722-36.301-13.722-50.074 0l-379.904 365.619-379.802-365.619z" />
<glyph unicode="&#xea25;" glyph-name="chevron-up" d="M792.781 335.258c-22.323-22.835-53.402-24.627-80.691 0l-200.090 191.846-200.090-191.846c-27.29-24.627-58.419-22.835-80.589 0-22.323 22.784-20.89 61.286 0 82.688 20.787 21.402 240.384 230.502 240.384 230.502 11.11 11.418 25.702 17.152 40.294 17.152s29.184-5.734 40.397-17.152c0 0 219.494-209.101 240.384-230.502 20.941-21.402 22.323-59.904 0-82.688z" />
<glyph unicode="&#xea26;" glyph-name="chevron-with-circle-down" d="M640.256 527.462l-128.256-117.862-128.307 117.862c-10.138 10.035-26.522 10.035-36.762 0-10.086-10.035-10.086-26.368 0-36.352l146.637-143.718c10.189-10.035 26.624-10.035 36.71 0l146.637 143.718c10.189 9.984 10.138 26.317 0 36.352-10.086 10.035-26.47 10.035-36.659 0zM512 952.32c-271.462 0-491.52-220.058-491.52-491.52 0-271.514 220.058-491.52 491.52-491.52s491.52 220.006 491.52 491.52c0 271.462-220.058 491.52-491.52 491.52zM512 33.075c-236.288 0-427.725 191.488-427.725 427.725s191.437 427.725 427.725 427.725c236.186 0 427.725-191.488 427.725-427.725s-191.539-427.725-427.725-427.725z" />
<glyph unicode="&#xea27;" glyph-name="chevron-with-circle-left" d="M578.662 625.869c-10.035 10.086-26.368 10.086-36.352 0l-143.718-146.688c-10.035-10.189-10.035-26.624 0-36.71l143.718-146.637c9.984-10.189 26.317-10.138 36.352 0 10.035 10.086 10.035 26.522 0 36.71l-117.862 128.256 117.862 128.307c10.035 10.138 10.035 26.522 0 36.762zM512 952.32c-271.462 0-491.52-220.058-491.52-491.52 0-271.514 220.058-491.52 491.52-491.52s491.52 220.006 491.52 491.52c0 271.462-220.058 491.52-491.52 491.52zM512 33.075c-236.288 0-427.725 191.488-427.725 427.725s191.437 427.725 427.725 427.725c236.186 0 427.725-191.488 427.725-427.725s-191.539-427.725-427.725-427.725z" />
<glyph unicode="&#xea28;" glyph-name="chevron-with-circle-right" d="M563.2 460.8l-117.862 128.307c-10.035 10.138-10.035 26.573 0 36.762 10.035 10.086 26.368 10.086 36.352 0l143.718-146.637c10.035-10.189 10.035-26.624 0-36.71l-143.718-146.637c-9.984-10.189-26.317-10.138-36.352 0-10.035 10.086-10.035 26.522 0 36.71l117.862 128.205zM512 952.32c271.462 0 491.52-220.058 491.52-491.52 0-271.514-220.058-491.52-491.52-491.52s-491.52 220.006-491.52 491.52c0 271.462 220.058 491.52 491.52 491.52zM512 33.075c236.186 0 427.725 191.488 427.725 427.725s-191.539 427.725-427.725 427.725c-236.288 0-427.725-191.488-427.725-427.725-0.051-236.237 191.437-427.725 427.725-427.725z" />
<glyph unicode="&#xea29;" glyph-name="chevron-with-circle-up" d="M530.381 574.208c-10.189 10.035-26.624 10.035-36.71 0l-146.637-143.718c-10.189-9.984-10.138-26.317 0-36.352 10.086-10.035 26.522-10.035 36.71 0l128.256 117.862 128.307-117.862c10.138-10.035 26.522-10.035 36.762 0 10.086 10.035 10.086 26.368 0 36.352l-146.688 143.718zM512 952.32c-271.462 0-491.52-220.058-491.52-491.52 0-271.514 220.058-491.52 491.52-491.52s491.52 220.006 491.52 491.52c0 271.462-220.058 491.52-491.52 491.52zM512 33.075c-236.288 0-427.725 191.488-427.725 427.725s191.437 427.725 427.725 427.725c236.186 0 427.725-191.488 427.725-427.725s-191.539-427.725-427.725-427.725z" />
<glyph unicode="&#xea2a;" glyph-name="dot-single" d="M399.36 460.8c0-62.208 50.483-112.64 112.691-112.64s112.589 50.483 112.589 112.64c0 62.208-50.381 112.589-112.589 112.589s-112.691-50.381-112.691-112.589z" />
<glyph unicode="&#xea2b;" glyph-name="dots-three-horizontal" d="M512.051 573.44c-62.208 0-112.691-50.432-112.691-112.64s50.483-112.64 112.691-112.64c62.208 0 112.589 50.432 112.589 112.64s-50.381 112.64-112.589 112.64zM153.651 573.44c-62.208 0-112.691-50.432-112.691-112.64s50.483-112.64 112.691-112.64c62.208 0 112.589 50.483 112.589 112.64s-50.381 112.64-112.589 112.64zM870.451 573.44c-62.208 0-112.691-50.432-112.691-112.64s50.483-112.64 112.691-112.64c62.208 0 112.589 50.432 112.589 112.64s-50.381 112.64-112.589 112.64z" />
<glyph unicode="&#xea2c;" glyph-name="dots-three-vertical" d="M512.051 573.44c-62.208 0-112.691-50.432-112.691-112.64s50.483-112.64 112.691-112.64c62.208 0 112.589 50.432 112.589 112.64s-50.381 112.64-112.589 112.64zM512.051 706.56c62.208 0 112.589 50.483 112.589 112.64s-50.381 112.64-112.589 112.64c-62.208 0-112.691-50.432-112.691-112.64s50.483-112.64 112.691-112.64zM512.051 215.040c-62.208 0-112.691-50.432-112.691-112.64s50.483-112.64 112.691-112.64c62.208 0 112.589 50.432 112.589 112.64s-50.381 112.64-112.589 112.64z" />
<glyph unicode="&#xea2d;" glyph-name="dots-two-horizontal" d="M716.851 573.44c-62.208 0-112.691-50.432-112.691-112.64s50.483-112.64 112.691-112.64c62.208 0 112.589 50.432 112.589 112.64s-50.381 112.64-112.589 112.64zM307.251 573.44c-62.208 0-112.691-50.432-112.691-112.64s50.483-112.64 112.691-112.64c62.208 0 112.589 50.483 112.589 112.64s-50.381 112.64-112.589 112.64z" />
<glyph unicode="&#xea2e;" glyph-name="dots-two-vertical" d="M512.051 552.96c62.208 0 112.589 50.483 112.589 112.64s-50.381 112.64-112.589 112.64c-62.208 0-112.691-50.432-112.691-112.64s50.483-112.64 112.691-112.64zM512.051 368.64c-62.208 0-112.691-50.432-112.691-112.64s50.483-112.64 112.691-112.64c62.208 0 112.589 50.432 112.589 112.64s-50.381 112.64-112.589 112.64z" />
<glyph unicode="&#xea2f;" glyph-name="emoji-flirt" d="M384 473.6c42.445 0 76.8 40.090 76.8 89.6s-34.355 89.6-76.8 89.6-76.8-40.141-76.8-89.6 34.406-89.6 76.8-89.6zM512 952.32c-271.462 0-491.52-220.058-491.52-491.52s220.058-491.52 491.52-491.52c271.411 0 491.52 220.058 491.52 491.571 0 271.411-220.109 491.469-491.52 491.469zM512 71.731c-214.886 0-389.12 174.182-389.12 389.12 0 214.886 174.182 389.12 389.12 389.12s389.12-174.234 389.12-389.171c0-214.886-174.234-389.069-389.12-389.069zM734.259 392.397c-18.586 9.574-41.728 2.202-51.61-16.384-1.741-3.328-44.493-81.562-170.598-81.562-125.491 0-168.499 77.466-170.65 81.51-9.626 18.688-32.358 26.317-51.405 16.845-18.944-9.472-26.675-32.563-17.152-51.558 2.56-5.069 63.898-123.597 239.206-123.597 175.36 0 236.595 118.579 239.104 123.648 9.421 18.79 1.843 41.472-16.896 51.098zM576 524.8h128c21.197 0 38.4 17.203 38.4 38.4s-17.203 38.4-38.4 38.4h-128c-21.197 0-38.4-17.203-38.4-38.4 0-21.248 17.203-38.4 38.4-38.4z" />
<glyph unicode="&#xea30;" glyph-name="flow-branch" d="M839.68 768c0 67.891-54.989 122.88-122.88 122.88s-122.88-54.989-122.88-122.88c0-49.203 29.082-91.341 70.861-110.95-4.198-81.101-65.024-108.646-170.752-148.275-44.544-16.742-93.645-35.277-135.629-63.181v210.995c42.24 19.456 71.68 61.901 71.68 111.411 0 67.891-54.989 122.88-122.88 122.88s-122.88-54.989-122.88-122.88c0-49.51 29.491-91.955 71.68-111.411v-391.629c-42.24-19.405-71.68-61.85-71.68-111.36 0-67.891 54.989-122.88 122.88-122.88s122.88 55.040 122.88 122.88c0 49.203-29.082 91.341-70.861 110.95 4.198 81.050 65.075 108.646 170.752 148.275 103.936 39.014 232.499 87.603 237.568 243.507 42.445 19.354 72.141 61.952 72.141 111.667zM307.2 838.912c39.117 0 70.861-31.693 70.861-70.912 0-39.117-31.744-70.912-70.861-70.912-39.168 0-70.861 31.795-70.861 70.912 0 39.219 31.693 70.912 70.861 70.912zM307.2 82.688c-39.219 0-70.912 31.795-70.912 70.912 0 39.219 31.693 70.912 70.912 70.912 39.117 0 70.861-31.693 70.861-70.912 0-39.117-31.744-70.912-70.861-70.912zM716.8 697.088c-39.219 0-70.912 31.795-70.912 70.912 0 39.219 31.693 70.912 70.912 70.912 39.117 0 70.861-31.693 70.861-70.912 0-39.117-31.744-70.912-70.861-70.912z" />
<glyph unicode="&#xea31;" glyph-name="flow-cascade" d="M716.8 225.28c-49.51 0-91.955-29.491-111.411-71.68h-170.189c-42.394 0-76.8 34.406-76.8 76.8v197.12c23.347-11.162 49.203-17.92 76.8-17.92h170.189c19.456-42.189 61.85-71.68 111.411-71.68 67.891 0 122.88 55.040 122.88 122.88s-54.989 122.88-122.88 122.88c-49.51 0-91.955-29.491-111.411-71.68h-170.189c-42.394 0-76.8 34.406-76.8 76.8v118.989c42.24 19.456 71.68 61.901 71.68 111.411 0 67.891-54.989 122.88-122.88 122.88s-122.88-54.989-122.88-122.88c0-49.51 29.491-91.955 71.68-111.411v-477.389c0-98.97 80.23-179.2 179.2-179.2h170.189c19.456-42.189 61.85-71.68 111.411-71.68 67.891 0 122.88 55.040 122.88 122.88s-54.989 122.88-122.88 122.88zM716.8 531.712c39.117 0 70.861-31.693 70.861-70.912 0-39.117-31.744-70.912-70.861-70.912-39.219 0-70.912 31.795-70.912 70.912 0.051 39.219 31.744 70.912 70.912 70.912zM307.2 890.112c39.117 0 70.861-31.693 70.861-70.912 0-39.117-31.744-70.912-70.861-70.912-39.168 0-70.861 31.795-70.861 70.912 0 39.219 31.693 70.912 70.861 70.912zM716.8 31.488c-39.219 0-70.912 31.795-70.912 70.912 0 39.219 31.693 70.912 70.912 70.912 39.117 0 70.861-31.693 70.861-70.912 0-39.117-31.744-70.912-70.861-70.912z" />
<glyph unicode="&#xea32;" glyph-name="flow-line" d="M563.2 265.011v391.578c42.24 19.456 71.68 61.85 71.68 111.411 0 67.891-54.989 122.88-122.88 122.88s-122.88-54.989-122.88-122.88c0-49.51 29.491-91.955 71.68-111.411v-391.629c-42.24-19.405-71.68-61.85-71.68-111.36 0-67.891 54.989-122.88 122.88-122.88s122.88 55.040 122.88 122.88c0 49.51-29.44 91.955-71.68 111.411zM512 838.912c39.117 0 70.861-31.693 70.861-70.912 0-39.117-31.744-70.912-70.861-70.912-39.168 0-70.861 31.795-70.861 70.912 0 39.219 31.693 70.912 70.861 70.912zM512 82.688c-39.219 0-70.912 31.795-70.912 70.912 0 39.219 31.693 70.912 70.912 70.912 39.117 0 70.861-31.693 70.861-70.912 0-39.117-31.744-70.912-70.861-70.912z" />
<glyph unicode="&#xea33;" glyph-name="flow-parallel" d="M430.080 768c0 67.891-54.989 122.88-122.88 122.88s-122.88-54.989-122.88-122.88c0-49.51 29.491-91.955 71.68-111.411v-391.629c-42.24-19.405-71.68-61.85-71.68-111.36 0-67.891 54.989-122.88 122.88-122.88s122.88 55.040 122.88 122.88c0 49.51-29.491 91.955-71.68 111.411v391.578c42.24 19.456 71.68 61.901 71.68 111.411zM378.061 153.6c0-39.117-31.744-70.912-70.861-70.912-39.219 0-70.912 31.795-70.912 70.912 0 39.219 31.693 70.912 70.912 70.912 39.117 0 70.861-31.693 70.861-70.912zM307.2 697.088c-39.168 0-70.861 31.795-70.861 70.912 0 39.219 31.693 70.912 70.912 70.912 39.117 0 70.861-31.693 70.861-70.912-0.051-39.117-31.795-70.912-70.912-70.912zM768 265.011v391.578c42.24 19.456 71.68 61.85 71.68 111.411 0 67.891-54.989 122.88-122.88 122.88s-122.88-54.989-122.88-122.88c0-49.51 29.491-91.955 71.68-111.411v-391.629c-42.24-19.456-71.68-61.85-71.68-111.411 0-67.891 54.989-122.88 122.88-122.88s122.88 55.040 122.88 122.88c0 49.562-29.44 92.006-71.68 111.462zM645.939 768c0 39.219 31.693 70.912 70.912 70.912 39.117 0 70.861-31.693 70.861-70.912 0-39.117-31.744-70.912-70.861-70.912-39.219 0-70.912 31.795-70.912 70.912zM716.8 82.688c-39.219 0-70.912 31.795-70.912 70.912 0 39.219 31.693 70.912 70.912 70.912 39.117 0 70.861-31.693 70.861-70.912 0-39.117-31.744-70.912-70.861-70.912z" />
<glyph unicode="&#xea34;" glyph-name="flow-tree" d="M921.6 213.811v118.989c0 98.97-80.23 179.2-179.2 179.2h-102.4c-42.394 0-76.8 34.406-76.8 76.8v118.989c42.24 19.456 71.68 61.85 71.68 111.411 0 67.891-54.989 122.88-122.88 122.88s-122.88-54.989-122.88-122.88c0-49.51 29.491-91.955 71.68-111.411v-118.989c0-42.394-34.406-76.8-76.8-76.8h-102.4c-98.97 0-179.2-80.23-179.2-179.2v-118.989c-42.24-19.456-71.68-61.901-71.68-111.411 0-67.891 54.989-122.88 122.88-122.88s122.88 55.040 122.88 122.88c0 49.51-29.491 91.955-71.68 111.411v118.989c0 42.394 34.406 76.8 76.8 76.8h102.4c27.597 0 53.453 6.758 76.8 17.92v-213.709c-42.24-19.456-71.68-61.901-71.68-111.411 0-67.891 54.989-122.88 122.88-122.88s122.88 55.040 122.88 122.88c0 49.51-29.491 91.955-71.68 111.411v213.709c23.347-11.162 49.203-17.92 76.8-17.92h102.4c42.394 0 76.8-34.406 76.8-76.8v-118.989c-42.24-19.456-71.68-61.85-71.68-111.411 0-67.891 54.989-122.88 122.88-122.88s122.88 55.040 122.88 122.88c0 49.51-29.44 91.955-71.68 111.411zM512 890.112c39.117 0 70.861-31.693 70.861-70.912 0-39.117-31.744-70.912-70.861-70.912-39.168 0-70.861 31.795-70.861 70.912 0 39.219 31.693 70.912 70.861 70.912zM153.6 31.488c-39.219 0-70.912 31.795-70.912 70.912 0 39.219 31.693 70.912 70.912 70.912 39.117 0 70.861-31.693 70.861-70.912 0-39.117-31.744-70.912-70.861-70.912zM512 31.488c-39.219 0-70.912 31.795-70.912 70.912 0 39.219 31.693 70.912 70.912 70.912 39.117 0 70.861-31.693 70.861-70.912 0-39.117-31.744-70.912-70.861-70.912zM870.4 31.488c-39.219 0-70.912 31.795-70.912 70.912 0 39.219 31.693 70.912 70.912 70.912 39.117 0 70.861-31.693 70.861-70.912 0-39.117-31.744-70.912-70.861-70.912z" />
<glyph unicode="&#xea35;" glyph-name="install" d="M975.821 414.822l-162.355 405.862c-11.981 30.054-41.062 49.715-73.421 49.715h-124.621l19.456-208.128h138.24l-261.12-216.474-261.12 216.474h138.24l19.456 208.128h-124.621c-32.358 0-61.44-19.661-73.421-49.715l-162.355-405.862c-14.746-36.915-19.098-77.158-12.595-116.326l30.208-181.197c6.349-38.144 39.322-66.099 77.978-66.099h736.41c38.656 0 71.629 27.955 77.978 66.099l30.208 181.197c6.605 39.168 2.253 79.411-12.544 116.326zM868.301 192.256c-3.686-22.323-22.989-38.656-45.619-38.656h-621.363c-22.63 0-41.933 16.333-45.619 38.656l-18.688 112.282c-4.762 28.211 16.998 53.862 45.619 53.862h658.79c28.57 0 50.33-25.651 45.619-53.862l-18.739-112.282z" />
<glyph unicode="&#xea36;" glyph-name="open-book" d="M542.464 706.765l22.835-70.195c18.893 16.179 42.752 30.669 73.779 40.704 30.208 9.83 56.883 15.36 80.998 18.534l-22.016 67.738c-24.371-3.533-51.251-9.216-80.896-18.842-29.594-9.626-54.016-23.040-74.701-37.939zM589.926 560.589l22.835-70.195c18.893 16.179 42.752 30.669 73.779 40.704 30.208 9.83 56.883 15.36 80.998 18.534l-22.016 67.738c-24.371-3.533-51.251-9.216-80.896-18.842-29.594-9.574-53.965-22.989-74.701-37.939zM637.44 414.464l22.835-70.195c18.893 16.179 42.752 30.669 73.779 40.704 30.208 9.83 56.883 15.36 80.998 18.534l-22.016 67.738c-24.371-3.533-51.251-9.216-80.896-18.842-29.645-9.574-54.016-23.040-74.701-37.939zM275.866 303.258l22.016-67.738c21.35 11.571 46.182 22.784 76.39 32.563 31.027 10.086 58.829 12.39 83.61 10.394l-22.835 70.195c-25.549-0.102-53.146-3.584-82.688-13.158-29.645-9.626-54.733-20.787-76.493-32.256zM180.89 595.558l22.016-67.738c21.35 11.571 46.182 22.733 76.39 32.563 31.027 10.086 58.829 12.39 83.61 10.394l-22.784 70.246c-25.549-0.154-53.146-3.584-82.739-13.21-29.645-9.626-54.733-20.787-76.493-32.256zM228.352 449.382l22.016-67.738c21.35 11.571 46.182 22.784 76.39 32.563 31.027 10.086 58.829 12.39 83.61 10.394l-22.784 70.246c-25.549-0.102-53.146-3.584-82.688-13.158-29.645-9.626-54.784-20.838-76.544-32.307zM566.477 900.608c-88.218-28.672-134.298-89.702-156.314-131.021-42.086 20.48-115.2 42.752-203.418 14.080-129.178-41.984-203.213-134.502-203.213-134.502l209.664-644.454c6.451-19.814 33.075-24.422 44.954-7.322 25.549 36.813 74.752 84.89 166.758 114.79 87.962 28.57 152.013-2.765 187.136-29.594 13.926-10.65 33.894-3.072 39.014 13.722 12.902 42.342 46.438 104.448 133.632 132.762 92.109 29.952 160.205 19.917 202.547 5.12 19.712-6.861 38.4 12.39 32 32.205l-209.306 644.813c0 0-114.278 31.334-243.456-10.598zM560.691 191.693c-41.933 12.493-97.331 18.33-160.819-2.253-64.051-20.787-108.902-48.589-138.189-71.885l-166.144 511.078c18.33 18.33 60.774 53.35 136.294 77.875 71.117 23.091 129.434 3.328 167.885-19.354l160.973-495.462zM913.664 329.37c-37.427 1.638-90.061-2.253-154.112-23.091-63.488-20.634-104.858-57.958-131.43-92.672l-160.973 495.462c17.715 40.96 53.248 91.238 124.416 114.33 75.469 24.525 130.406 21.146 156.006 17.101l166.093-511.13z" />
<glyph unicode="&#xea37;" glyph-name="resize-100" d="M209.92 250.88l-158.72-148.48 102.4-102.4 148.48 158.72 107.52-107.52v307.2h-307.2l107.52-107.52zM972.8 819.2l-102.4 102.4-148.48-158.72-107.52 107.52v-307.2h307.2l-107.52 107.52 158.72 148.48z" />
<glyph unicode="&#xea38;" glyph-name="resize-full-screen" d="M357.734 410.266l-150.067-155.187-105.267 124.365v-328.243h327.014l-124.416 106.547 155.136 150.118-102.4 102.4zM594.586 870.4l124.416-106.547-155.136-150.118 102.4-102.4 150.067 155.187 105.267-124.365v328.243h-327.014z" />
<glyph unicode="&#xea39;" glyph-name="select-arrows" d="M512 921.6l-256-358.4h512l-256 358.4zM512 0l256 358.4h-512l256-358.4z" />
<glyph unicode="&#xea3a;" glyph-name="trash" d="M173.517 608.614l56.371-558.49c3.123-23.603 117.094-101.222 282.112-101.325 165.12 0.102 279.091 77.722 282.163 101.325l56.422 558.49c-86.221-48.23-215.091-71.014-338.586-71.014-123.392 0-252.314 22.784-338.483 71.014zM674.202 895.488l-43.981 48.691c-16.998 24.218-35.43 28.621-71.322 28.621h-93.747c-35.84 0-54.323-4.403-71.27-28.621l-43.981-48.691c-131.584-22.989-227.021-83.968-227.021-128.973v-8.704c0-79.206 174.234-143.411 389.12-143.411 214.938 0 389.171 64.205 389.171 143.411v8.704c0 45.005-95.386 105.984-226.97 128.973zM617.984 750.592l-54.784 68.608h-102.4l-54.682-68.608h-87.040c0 0 95.334 113.715 108.083 129.126 9.728 11.776 19.661 16.282 32.563 16.282h104.602c12.954 0 22.886-4.506 32.614-16.282 12.698-15.411 108.083-129.126 108.083-129.126h-87.040z" />
<glyph unicode="&#xea3b;" glyph-name="triangle-down" d="M256 665.6h512l-256-460.8-256 460.8z" />
<glyph unicode="&#xea3c;" glyph-name="triangle-left" d="M716.8 716.8v-512l-460.8 256 460.8 256z" />
<glyph unicode="&#xea3d;" glyph-name="triangle-right" d="M768 460.8l-460.8-256v512l460.8-256z" />
<glyph unicode="&#xea3e;" glyph-name="triangle-up" d="M768 256h-512l256 460.8 256-460.8z" />
<glyph unicode="&#xea3f;" glyph-name="upload-to-cloud" d="M778.906 632.883c-14.131 0-27.955-1.28-41.421-3.482-33.587 109.824-137.626 189.798-260.864 189.798-150.477 0-272.384-119.194-272.384-266.189 0-13.107 1.024-26.010 2.918-38.707-7.219 0.87-14.49 1.382-21.965 1.382-102.298 0-185.19-80.998-185.19-180.992s82.893-181.094 185.19-181.094h224.41v204.8h-128l230.4 256 230.4-256h-128v-204.8h164.506c135.322 0 245.094 107.315 245.094 239.616 0 132.403-109.773 239.667-245.094 239.667z" />
<glyph unicode="&#xea40;" glyph-name="adjust" d="M972.8 501.811c-9.318 0-40.909 0-50.176 0-28.314 0-51.2-18.381-51.2-41.011 0-22.579 22.886-40.909 51.2-40.909 9.318 0 40.909 0 50.176 0 28.262 0 51.2 18.278 51.2 40.909 0 22.579-22.989 41.011-51.2 41.011zM512 742.4c-156.211 0-281.6-125.389-281.6-281.6s125.389-281.6 281.6-281.6c156.16 0 281.6 125.389 281.6 281.6s-125.491 281.6-281.6 281.6zM512 256c-113.203 0-204.8 91.699-204.8 204.8 0 113.203 91.597 204.8 204.8 204.8v-409.6zM153.6 460.8c0 22.579-22.989 41.011-51.2 41.011-9.472 0-41.779 0-51.2 0-28.314 0-51.2-18.381-51.2-41.011 0-22.579 22.886-40.909 51.2-40.909 9.421 0 41.728 0 51.2 0 28.211 0 51.2 18.33 51.2 40.909zM512 819.2c22.579 0 40.909 22.886 40.909 51.2 0 9.421 0 41.779 0 51.2 0 28.314-18.33 51.2-40.909 51.2-22.63 0-41.011-22.886-41.011-51.2 0-9.421 0-41.779 0-51.2 0-28.314 18.381-51.2 41.011-51.2zM512 102.4c-22.63 0-41.011-22.886-41.011-51.2 0-9.421 0-41.779 0-51.2 0-28.314 18.381-51.2 41.011-51.2 22.579 0 40.909 22.886 40.909 51.2 0 9.421 0 41.779 0 51.2 0 28.314-18.33 51.2-40.909 51.2zM889.088 779.981c20.019 20.019 23.245 49.203 7.27 65.178s-45.21 12.698-65.126-7.322c-5.53-5.478-30.362-30.31-35.84-35.789-20.019-20.019-23.245-49.203-7.27-65.178s45.21-12.698 65.178 7.322c5.478 5.53 30.259 30.31 35.789 35.789zM170.701 177.51c-5.53-5.581-30.362-30.413-35.84-35.891-20.019-20.019-23.245-49.101-7.27-65.075s45.21-12.8 65.126 7.219c5.53 5.478 30.362 30.31 35.84 35.789 20.019 20.019 23.245 49.203 7.27 65.229s-45.21 12.646-65.126-7.27zM192.768 837.888c-19.968 20.019-49.203 23.296-65.178 7.322s-12.698-45.21 7.219-65.229c5.53-5.478 30.362-30.31 35.84-35.789 20.019-20.019 49.152-23.296 65.126-7.322s12.749 45.21-7.219 65.178c-5.478 5.53-30.259 30.362-35.789 35.84zM795.341 119.501c5.53-5.478 30.362-30.31 35.84-35.789 20.019-20.019 49.152-23.194 65.126-7.322 15.974 15.974 12.749 45.21-7.27 65.178-5.478 5.478-30.31 30.31-35.789 35.789-20.019 20.019-49.203 23.296-65.229 7.322s-12.698-45.158 7.322-65.178z" />
<glyph unicode="&#xea41;" glyph-name="air" d="M135.322 647.322c89.446 76.8 160.102 137.523 351.846 29.184 92.109-52.019 166.4-71.68 228.198-71.578 108.288 0 178.483 60.211 239.155 112.282 21.658 18.586 24.422 51.61 6.246 73.677-18.278 22.118-50.534 24.986-72.192 6.4-89.395-76.902-160.102-137.626-351.846-29.184-253.338 143.002-372.019 41.114-467.354-40.806-21.606-18.586-24.371-51.507-6.195-73.677 18.227-22.016 50.483-24.934 72.141-6.298zM888.576 535.808c-89.395-76.8-160.102-137.626-351.846-29.184-253.338 143.104-372.019 41.165-467.354-40.704-21.606-18.586-24.422-51.61-6.195-73.677 18.176-22.118 50.483-24.986 72.141-6.4 89.446 76.851 160.102 137.574 351.846 29.286 92.109-52.122 166.4-71.68 228.198-71.68 108.288 0 178.483 60.211 239.155 112.384 21.658 18.586 24.422 51.61 6.246 73.626-18.227 22.17-50.534 24.934-72.192 6.349zM888.576 274.381c-89.395-76.902-160.102-137.626-351.846-29.286-253.338 143.104-372.019 41.216-467.354-40.704-21.606-18.586-24.422-51.61-6.195-73.677 18.176-22.118 50.483-24.883 72.141-6.298 89.446 76.8 160.102 137.472 351.846 29.184 92.109-52.019 166.4-71.68 228.198-71.68 108.288 0 178.483 60.314 239.155 112.384 21.658 18.586 24.422 51.61 6.246 73.677-18.227 22.118-50.534 24.934-72.192 6.4z" />
<glyph unicode="&#xea42;" glyph-name="align-bottom" d="M665.6 409.6h-102.4v409.6h-102.4v-409.6h-102.4l153.6-153.6 153.6 153.6zM890.88 204.8h-757.76c-28.262 0-30.72-22.886-30.72-51.2s2.458-51.2 30.72-51.2h757.76c28.262 0 30.72 22.886 30.72 51.2s-2.458 51.2-30.72 51.2z" />
<glyph unicode="&#xea43;" glyph-name="align-horizontal-middle" d="M409.6 460.8l-153.6 153.6v-102.4h-204.8v-102.4h204.8v-102.4l153.6 153.6zM768 307.2v102.4h204.8v102.4h-204.8v102.4l-153.6-153.6 153.6-153.6zM512 51.2c28.314 0 51.2 2.509 51.2 30.72v757.76c0 28.314-22.886 30.72-51.2 30.72-28.262 0-51.2-2.406-51.2-30.72v-757.76c0-28.211 22.938-30.72 51.2-30.72z" />
<glyph unicode="&#xea44;" glyph-name="align-left" d="M307.2 460.8l153.6-153.6v102.4h409.6v102.4h-409.6v102.4l-153.6-153.6zM204.8 870.4c-28.314 0-51.2-2.406-51.2-30.72v-757.76c0-28.211 22.886-30.72 51.2-30.72 28.262 0 51.2 2.509 51.2 30.72v757.76c0 28.314-22.938 30.72-51.2 30.72z" />
<glyph unicode="&#xea45;" glyph-name="align-right" d="M563.2 614.4v-102.4h-409.6v-102.4h409.6v-102.4l153.6 153.6-153.6 153.6zM768 839.68v-757.76c0-28.211 22.938-30.72 51.2-30.72 28.314 0 51.2 2.509 51.2 30.72v757.76c0 28.314-22.886 30.72-51.2 30.72-28.262 0-51.2-2.406-51.2-30.72z" />
<glyph unicode="&#xea46;" glyph-name="align-top" d="M512 665.6l-153.6-153.6h102.4v-409.6h102.4v409.6h102.4l-153.6 153.6zM921.6 768c0 28.314-2.458 51.2-30.72 51.2h-757.76c-28.262 0-30.72-22.886-30.72-51.2s2.458-51.2 30.72-51.2h757.76c28.262 0 30.72 22.886 30.72 51.2z" />
<glyph unicode="&#xea47;" glyph-name="align-vertical-middle" d="M512 358.4l-153.6-153.6h102.4v-204.8h102.4v204.8h102.4l-153.6 153.6zM665.6 716.8h-102.4v204.8h-102.4v-204.8h-102.4l153.6-153.6 153.6 153.6zM921.6 460.8c0 28.314-2.458 51.2-30.72 51.2h-757.76c-28.262 0-30.72-22.886-30.72-51.2 0-28.211 2.458-51.2 30.72-51.2h757.76c28.262 0 30.72 22.989 30.72 51.2z" />
<glyph unicode="&#xea48;" glyph-name="archive" d="M715.827 870.4h-407.706c0 0-50.995 0-50.995-51.2h509.696c0 51.2-50.995 51.2-50.995 51.2zM868.762 716.8c0 51.2-50.944 51.2-50.944 51.2h-611.635c0 0-50.944 0-50.944-51.2v-51.2h713.523v51.2zM970.65 665.6c-30.106 30.31-30.106 30.31-30.106 30.31v-81.51h-857.088v81.51c0 0 0 0-30.157-30.31s-51.763-38.4-39.629-102.4c12.083-63.795 70.605-413.491 79.309-460.8 9.523-51.917 62.31-51.2 62.31-51.2h713.523c0 0 52.736-0.717 62.31 51.2 8.704 47.309 67.174 397.005 79.309 460.8 12.032 64-9.574 72.090-39.782 102.4zM716.8 358.554c0-28.365-22.989-51.354-51.354-51.354h-306.893c-28.365 0-51.354 22.989-51.354 51.354v102.246h51.2v-102.4h307.2v102.4h51.2v-102.246z" />
<glyph unicode="&#xea49;" glyph-name="attachment2" d="M286.822-40.96c-66.202 0-128.205 28.416-172.954 73.728-86.784 87.859-110.95 241.203 10.701 364.339 71.219 72.090 356.659 361.114 499.098 505.344 50.586 51.2 114.944 71.014 176.538 54.272 60.57-16.384 110.131-66.611 126.362-127.898 16.486-62.464-3.021-127.642-53.555-178.842l-477.338-483.328c-27.238-27.597-58.061-43.93-88.986-47.206-30.669-3.277-59.904 6.656-80.384 27.392-37.069 37.683-42.394 108.39 19.354 170.854l335.258 339.456c13.773 13.926 36.096 13.926 49.869 0s13.773-36.557 0-50.483l-335.309-339.507c-28.979-29.286-31.642-57.293-19.302-69.837 5.427-5.427 13.619-7.936 23.091-6.861 14.49 1.485 31.027 11.059 46.541 26.675l477.338 483.277c32.768 33.178 45.312 72.192 35.328 109.824-9.83 37.12-39.834 67.482-76.442 77.466-37.171 10.086-75.776-2.662-108.544-35.84-142.438-144.282-427.827-433.254-499.098-505.344-92.979-94.157-70.707-202.547-10.701-263.322 60.058-60.774 167.014-83.405 260.045 10.854l499.098 505.344c13.773 13.926 36.096 13.926 49.869 0s13.773-36.557 0-50.534l-499.098-505.344c-58.829-59.494-124.723-84.48-186.778-84.48z" />
<glyph unicode="&#xea4a;" glyph-name="bar-graph" d="M870.4 921.6h-102.4c-28.262 0-51.2-22.886-51.2-51.2v-869.99h204.8v869.99c0 28.314-22.886 51.2-51.2 51.2zM563.2 614.4h-102.4c-28.262 0-51.2-22.886-51.2-51.2v-562.79h204.8v562.79c0 28.314-22.886 51.2-51.2 51.2zM256 307.2h-102.4c-28.262 0-51.2-22.886-51.2-51.2v-255.59h204.8v255.59c0 28.314-22.886 51.2-51.2 51.2z" />
<glyph unicode="&#xea4b;" glyph-name="battery" d="M788.89 460.8c0 141.619 65.382 221.184 116.582 221.184 18.586 0 67.328 0 67.328 0-34.202 54.221-62.515 86.016-187.29 86.016h-512.41c-191.181 0-273.101-176.179-273.101-307.2s81.92-307.2 273.101-307.2h512.41c124.826 0 153.088 31.795 187.29 86.016 0 0-16.128 0-67.328 0s-116.582 79.565-116.582 221.184zM649.626 368.896c-8.397-12.8-34.611-0.819-34.611-0.819l-151.398 68.506c0 0-13.517-34.304-23.91-58.419-10.496-24.115-18.483-51.405-61.901-20.89-43.469 30.618-183.347 166.4-183.347 166.4s-17.664 14.541-8.858 28.211c8.346 12.902 34.611 0.819 34.611 0.819l151.347-68.403c0 0 13.568 34.202 23.962 58.317 10.496 24.064 18.483 51.507 61.901 20.89 43.469-30.515 183.296-166.4 183.296-166.4s17.664-14.49 8.909-28.211zM966.349 566.886h-38.349c-28.621 0-56.576-38.605-56.576-101.325 0-62.822 28.006-101.376 56.576-101.376h38.349c28.672 0 57.651 38.605 57.651 101.376 0 62.72-28.979 101.325-57.651 101.325z" />
<glyph unicode="&#xea4c;" glyph-name="block1" d="M512 952.32c-271.514 0-491.571-220.058-491.571-491.52 0-271.514 220.058-491.571 491.571-491.571 271.411 0 491.52 220.058 491.52 491.571 0 271.462-220.109 491.52-491.52 491.52zM122.829 460.8c0 214.886 174.182 389.12 389.12 389.12 93.645 0 179.507-33.126 246.63-88.218l-547.533-547.533c-55.091 67.174-88.218 152.986-88.218 246.63zM511.949 71.731c-93.594 0-179.456 33.075-246.528 88.166l547.533 547.482c55.040-67.174 88.166-152.934 88.166-246.579 0-214.886-174.285-389.069-389.171-389.069z" />
<glyph unicode="&#xea4d;" glyph-name="book2" d="M870.4 668.16v-529.971c0-26.726-23.142-39.475-51.2-59.392-22.528-16.026-51.2 3.84-51.2 30.054 0 0 0 507.136 0 517.837 0 10.803-3.789 21.094-16.077 27.392s-396.186 208.128-396.186 208.128c-6.195 2.304-33.229 19.354-69.274 0.819-34.253-17.613-52.89-36.762-57.651-45.773l418.816-229.478c11.11-5.837 17.971-14.848 17.971-26.419v-553.062c0-11.776-7.27-24.371-18.893-29.952-5.325-2.662-11.213-3.942-17.050-3.942-6.912 0-13.875 1.69-19.763 5.325-11.008 6.707-398.029 244.019-423.578 259.43-12.288 7.373-26.675 22.477-26.982 33.69l-5.734 526.643c0 10.138-1.178 28.006 14.797 52.838 35.686 55.501 160.205 118.63 223.232 85.914l460.749-233.216c11.11-5.734 18.022-17.203 18.022-36.864z" />
<glyph unicode="&#xea4e;" glyph-name="briefcase1" d="M460.8 460.8h102.4v-102.4h460.8c0 0-7.629 228.301-10.24 299.725-2.56 67.891-26.88 109.875-102.4 109.875h-164.25c-25.446 48.026-52.838 99.584-61.286 115.507-16.947 31.898-22.733 38.093-60.365 38.093h-226.97c-37.632 0-43.366-6.195-60.365-38.093-8.448-15.923-35.84-67.482-61.235-115.507h-164.301c-75.571 0-99.584-41.984-102.4-109.875-2.765-67.942-10.189-299.725-10.189-299.725h460.8v102.4zM391.629 823.501c11.776 22.118 15.77 26.419 41.83 26.419h157.030c26.061 0 30.106-4.301 41.779-26.419 4.403-8.192 16.282-30.72 29.44-55.501h-299.52c13.158 24.781 25.037 47.309 29.44 55.501zM563.2 204.8h-102.4v102.4h-435.2c0 0 6.349-92.006 10.189-170.086 1.587-32.41 11.162-85.914 92.16-85.914h768.051c80.998 0 90.368 53.606 92.16 85.914 4.454 80.282 10.24 170.086 10.24 170.086h-435.2v-102.4z" />
</font>
</defs>
</svg>
