<?xml version="1.0" encoding="UTF-8" standalone="no" ?>
<!DOCTYPE svg PUBLIC "-//W3C//DTD SVG 1.1//EN" "http://www.w3.org/Graphics/SVG/1.1/DTD/svg11.dtd">
<svg xmlns="http://www.w3.org/2000/svg" xmlns:xlink="http://www.w3.org/1999/xlink" version="1.1" width="500" height="500" viewBox="0 0 500 500" xml:space="preserve">
<desc>Created with Fabric.js 5.3.0</desc>
<defs>
</defs>
<g transform="matrix(0.8298999 0 0 0.8298999 249.7108757516 250)" id="JiV7STcZzIpFUhpXsvcnO"  >
<g style="" vector-effect="non-scaling-stroke"   >
		<g transform="matrix(1 0 0 1 -11.2675 -118.386)" id="tTShscxUlIsJxpx5i8fvS"  >
<path style="stroke: none; stroke-width: 1; stroke-dasharray: none; stroke-linecap: butt; stroke-dashoffset: 0; stroke-linejoin: miter; stroke-miterlimit: 4; fill: rgb(241,216,158); fill-rule: nonzero; opacity: 1;" vector-effect="non-scaling-stroke"  transform=" translate(-288.732, -181.6145)" d="M 247.839 192.551 L 329.624 192.551 C 335.665 192.551 340.56100000000004 187.655 340.56100000000004 181.61499999999998 L 340.56100000000004 181.61499999999998 C 340.56100000000004 175.575 335.665 170.67799999999997 329.624 170.67799999999997 L 247.83900000000003 170.67799999999997 C 241.79800000000003 170.67799999999997 236.90300000000002 175.57399999999996 236.90300000000002 181.61499999999998 L 236.90300000000002 181.61499999999998 C 236.903 187.654 241.798 192.551 247.839 192.551 z" stroke-linecap="round" />
</g>
		<g transform="matrix(1 0 0 1 -45.7995 -0.2275)" id="zBSHTzgJRqgzAn6or62f7"  >
<path style="stroke: none; stroke-width: 1; stroke-dasharray: none; stroke-linecap: butt; stroke-dashoffset: 0; stroke-linejoin: miter; stroke-miterlimit: 4; fill: rgb(181,225,247); fill-rule: nonzero; opacity: 1;" vector-effect="non-scaling-stroke"  transform=" translate(-14.008, -14.008)" d="M 0 14.008 C 0 6.271599999999999 6.2716 0 14.008 0 C 21.7444 0 28.016 6.2716 28.016 14.008 C 28.016 21.7444 21.7444 28.016 14.008 28.016 C 6.271599999999999 28.016 0 21.7444 0 14.008 z" stroke-linecap="round" />
</g>
		<g transform="matrix(1 0 0 1 -5.663 41.9225)" id="VIVkMyd2pCSIbSc5cqIFF"  >
<path style="stroke: none; stroke-width: 1; stroke-dasharray: none; stroke-linecap: butt; stroke-dashoffset: 0; stroke-linejoin: miter; stroke-miterlimit: 4; fill: rgb(79,185,220); fill-rule: nonzero; opacity: 1;" vector-effect="non-scaling-stroke"  transform=" translate(-294.3365, -341.923)" d="M 329.93 265.844 C 337.014 277.875 341.088 291.933 341.088 306.906 C 341.088 352.082 304.512 388.658 259.33500000000004 388.658 C 244.32400000000004 388.658 230.29800000000003 384.572 218.24600000000004 377.45300000000003 C 218.24600000000004 377.466 218.25500000000002 377.478 218.25900000000004 377.49 C 232.43900000000005 401.698 258.65100000000007 418.002 288.732 418.002 C 333.85200000000003 418.002 370.427 381.427 370.427 336.309 C 370.427 306.234 354.129 280.026 329.93 265.844 z" stroke-linecap="round" />
</g>
		<g transform="matrix(1 0 0 1 25.674 2.887)" id="k9kPDUcFIZnOXkSFDgPEA"  >
<path style="stroke: none; stroke-width: 1; stroke-dasharray: none; stroke-linecap: butt; stroke-dashoffset: 0; stroke-linejoin: miter; stroke-miterlimit: 4; fill: rgb(117,196,224); fill-rule: nonzero; opacity: 1;" vector-effect="non-scaling-stroke"  transform=" translate(-325.6735, -302.8875)" d="M 444.377 232.333 C 444.377 240.737 437.564 247.549 429.16 247.549 C 420.75600000000003 247.549 413.944 240.737 413.944 232.333 C 413.944 223.93 420.75600000000003 217.117 429.16 217.117 C 437.563 217.118 444.377 223.93 444.377 232.333 z M 240.191 299.774 C 240.191 307.511 246.462 313.781 254.2 313.781 C 261.936 313.781 268.20799999999997 307.51 268.20799999999997 299.774 C 268.20799999999997 292.038 261.93699999999995 285.765 254.19999999999996 285.765 C 246.463 285.765 240.191 292.037 240.191 299.774 z M 341.088 306.906 C 341.088 352.082 304.512 388.658 259.33500000000004 388.658 C 244.32400000000004 388.658 230.29800000000003 384.572 218.24600000000004 377.45300000000003 C 218.24600000000004 377.523 218.31700000000004 377.59400000000005 218.31700000000004 377.665 C 218.24600000000004 377.594 218.24600000000004 377.523 218.17700000000005 377.45300000000003 C 211.05700000000004 365.40200000000004 206.97000000000006 351.377 206.97000000000006 336.295 C 206.97000000000006 291.12 243.54700000000005 254.543 288.72200000000004 254.543 C 303.73400000000004 254.543 317.83000000000004 258.63100000000003 329.88100000000003 265.749 C 337 277.8 341.088 291.895 341.088 306.906 z" stroke-linecap="round" />
</g>
		<g transform="matrix(1 0 0 1 0 0)" id="Fa-U8AM22zYxbRXhNrnRP"  >
<path style="stroke: none; stroke-width: 1; stroke-dasharray: none; stroke-linecap: butt; stroke-dashoffset: 0; stroke-linejoin: miter; stroke-miterlimit: 4; fill: rgb(254,198,23); fill-rule: nonzero; opacity: 1;" vector-effect="non-scaling-stroke"  transform=" translate(-299.9995, -300.0005)" d="M 417.855 285.766 C 473.05 280.24600000000004 503.408 249.889 508.927 194.69400000000002 C 514.447 249.889 544.804 280.247 599.999 285.766 C 544.804 291.286 514.446 321.64300000000003 508.927 376.838 C 503.408 321.643 473.051 291.285 417.855 285.766 z M 508.928 574.348 C 512.325 540.371 531.012 521.684 564.989 518.286 C 531.0120000000001 514.8889999999999 512.326 496.20199999999994 508.92800000000005 462.22599999999994 C 505.53100000000006 496.20199999999994 486.8430000000001 514.8879999999999 452.8670000000001 518.286 C 486.843 521.684 505.53 540.371 508.928 574.348 z M 56.061 142.72 C 59.458 108.744 78.145 90.057 112.122 86.65899999999999 C 78.14500000000001 83.26199999999999 59.459 64.57499999999999 56.061 30.597999999999992 C 52.663 64.575 33.976 83.262 0 86.66 C 33.976 90.057 52.663 108.744 56.061 142.72 z M 294.714 25.653 L 282.752 25.653 L 282.752 95.076 L 294.714 95.076 L 294.714 25.653 z M 452.866 144.251 L 402.851 144.251 L 402.851 156.213 L 452.866 156.213 L 452.866 144.251 z M 403.67 69.746 L 395.211 61.288 L 360.582 95.917 L 369.041 104.375 L 403.67 69.746 z M 339.299 66.648 L 327.55699999999996 64.383 L 321.852 93.94399999999999 L 333.59299999999996 96.20799999999998 L 339.299 66.648 z M 405.061 124.089 L 400.642 112.974 L 379.919 121.21600000000001 L 384.337 132.33100000000002 L 405.061 124.089 z M 174.614 144.251 L 124.595 144.251 L 124.595 156.213 L 174.614 156.213 L 174.614 144.251 z M 216.883 95.916 L 182.25 61.287 L 173.792 69.745 L 208.425 104.374 L 216.883 95.916 z M 255.611 93.944 L 249.905 64.38300000000001 L 238.164 66.64800000000001 L 243.869 96.20800000000001 L 255.611 93.944 z M 197.547 121.216 L 176.824 112.97399999999999 L 172.406 124.08899999999998 L 193.12900000000002 132.331 L 197.547 121.216 z" stroke-linecap="round" />
</g>
		<g transform="matrix(1 0 0 1 -87.6635 36.307)" id="_bCQkW5Tk3a3cDy3i2ywR"  >
<path style="stroke: none; stroke-width: 1; stroke-dasharray: none; stroke-linecap: butt; stroke-dashoffset: 0; stroke-linejoin: miter; stroke-miterlimit: 4; fill: rgb(99,120,140); fill-rule: nonzero; opacity: 1;" vector-effect="non-scaling-stroke"  transform=" translate(-212.336, -336.3075)" d="M 103.923 484.344 L 50.669 484.344 C 46.686 484.344 42.891999999999996 483.536 39.44 482.077 C 29.086999999999996 477.698 21.822 467.447 21.822 455.498 L 21.822 217.118 C 21.822 205.16899999999998 29.087 194.918 39.44 190.538 C 42.891999999999996 189.079 46.686 188.27100000000002 50.669 188.27100000000002 L 103.923 188.27100000000002 C 119.854 188.27100000000002 132.769 201.186 132.769 217.11800000000002 L 132.769 455.49800000000005 C 132.77 471.43 119.854 484.344 103.923 484.344 z M 402.85 336.309 C 402.85 399.334 351.75800000000004 450.427 288.732 450.427 C 225.70600000000002 450.427 174.61400000000003 399.334 174.61400000000003 336.309 C 174.61400000000003 273.283 225.70600000000002 222.19000000000003 288.732 222.19000000000003 C 351.75800000000004 222.19000000000003 402.85 273.282 402.85 336.309 z M 370.427 336.309 C 370.427 291.189 333.85200000000003 254.61300000000003 288.732 254.61300000000003 C 243.61200000000002 254.61300000000003 207.03700000000003 291.189 207.03700000000003 336.309 C 207.03700000000003 381.427 243.61200000000002 418.002 288.732 418.002 C 333.852 418.002 370.427 381.427 370.427 336.309 z" stroke-linecap="round" />
</g>
		<g transform="matrix(1 0 0 1 -11.4265 13.4835)" id="fLeVomz9DnJUvCT_3XjIw"  >
<path style="stroke: none; stroke-width: 1; stroke-dasharray: none; stroke-linecap: butt; stroke-dashoffset: 0; stroke-linejoin: miter; stroke-miterlimit: 4; fill: rgb(57,78,101); fill-rule: nonzero; opacity: 1;" vector-effect="non-scaling-stroke"  transform=" translate(-288.573, -313.484)" d="M 417.855 285.765 C 440.524 283.498 458.933 276.96999999999997 473.22200000000004 266.324 L 473.22200000000004 217.118 C 473.22200000000004 201.186 460.30600000000004 188.271 444.37600000000003 188.271 L 380.024 188.271 L 351.178 142.624 L 226.283 142.624 L 197.43699999999998 188.271 L 103.92299999999999 188.271 C 119.85399999999998 188.271 132.76899999999998 201.18599999999998 132.76899999999998 217.118 L 132.76899999999998 455.498 C 132.76899999999998 471.43 119.85399999999998 484.344 103.92299999999997 484.344 L 444.37699999999995 484.344 C 460.30699999999996 484.344 473.22299999999996 471.43 473.22299999999996 455.498 L 473.22299999999996 305.206 C 458.934 294.56 440.524 288.032 417.855 285.765 z M 236.903 181.614 C 236.903 175.574 241.798 170.677 247.839 170.677 L 329.624 170.677 C 335.665 170.677 340.56100000000004 175.57299999999998 340.56100000000004 181.614 L 340.56100000000004 181.614 C 340.56100000000004 187.654 335.665 192.55 329.624 192.55 L 247.83900000000003 192.55 C 241.798 192.551 236.903 187.654 236.903 181.614 L 236.903 181.614 z M 288.731 450.427 C 225.70499999999998 450.427 174.613 399.334 174.613 336.309 C 174.613 273.283 225.70499999999998 222.19000000000003 288.731 222.19000000000003 C 351.757 222.19000000000003 402.85 273.282 402.85 336.309 C 402.85 399.334 351.758 450.427 288.731 450.427 z M 429.16 217.118 C 437.56300000000005 217.118 444.377 223.93099999999998 444.377 232.334 C 444.377 240.738 437.564 247.55 429.16 247.55 C 420.75600000000003 247.55 413.944 240.738 413.944 232.334 C 413.944 223.93 420.756 217.118 429.16 217.118 z" stroke-linecap="round" />
</g>
</g>
</g>
</svg>